<?xml version="1.0" standalone="no"?>
<!DOCTYPE svg PUBLIC "-//W3C//DTD SVG 1.1//EN" "http://www.w3.org/Graphics/SVG/1.1/DTD/svg11.dtd" >
<svg xmlns="http://www.w3.org/2000/svg">
<metadata>Generated by IcoMoon</metadata>
<defs>
<font id="icomoon" horiz-adv-x="1024">
<font-face units-per-em="1024" ascent="960" descent="-64" />
<missing-glyph horiz-adv-x="1024" />
<glyph unicode="&#x20;" horiz-adv-x="512" d="" />
<glyph unicode="&#xe900;" glyph-name="acciones" d="M592 736c0-44.183-35.817-80-80-80s-80 35.817-80 80c0 44.183 35.817 80 80 80s80-35.817 80-80zM592 448c0-44.183-35.817-80-80-80s-80 35.817-80 80c0 44.183 35.817 80 80 80s80-35.817 80-80zM592 160c0-44.183-35.817-80-80-80s-80 35.817-80 80c0 44.183 35.817 80 80 80s80-35.817 80-80z" />
<glyph unicode="&#xe904;" glyph-name="actualizar" d="M874.849 466.218l-187.632 120.922c-12.337 7.951-15.893 24.394-7.946 36.736 7.946 12.332 24.415 15.882 36.731 7.94l142.964-92.126 90.030 139.71c7.957 12.332 24.404 15.872 36.731 7.941 12.337-7.951 15.892-24.395 7.946-36.736l-118.824-184.387zM859.652 520.602c-12.633 0-23.839 9.041-26.133 21.912-28.458 159.756-167.037 275.715-329.512 275.715s-301.054-115.959-329.512-275.715c-2.574-14.449-16.318-24.082-30.825-21.498-14.45 2.574-24.077 16.371-21.503 30.82 32.984 185.156 193.57 319.541 381.84 319.541s348.856-134.385 381.84-319.541c2.574-14.449-7.054-28.246-21.503-30.82-1.578-0.28-3.146-0.414-4.692-0.414zM52.639 204.423c-4.931 0-9.918 1.37-14.367 4.235-12.337 7.951-15.892 24.395-7.946 36.736l118.825 184.388 187.632-120.922c12.337-7.951 15.893-24.394 7.946-36.736-7.946-12.332-24.41-15.872-36.731-7.94l-142.964 92.126-90.030-139.71c-5.082-7.879-13.635-12.177-22.365-12.177zM519.993 24.623c-188.271 0-348.856 134.385-381.84 319.541-2.574 14.449 7.054 28.246 21.503 30.82 14.465 2.595 28.245-7.049 30.825-21.498 28.458-159.756 167.037-275.715 329.512-275.715s301.054 115.959 329.512 275.715c2.58 14.449 16.37 24.051 30.825 21.498 14.45-2.574 24.077-16.371 21.503-30.82-32.984-185.156-193.57-319.541-381.84-319.541z" />
<glyph unicode="&#xe905;" glyph-name="afecta_conexion" d="M345.894 669.016c-10.81 0-19.571-8.763-19.571-19.571v-167.501c0-10.808 8.762-19.57 19.571-19.57 10.807 0 19.571 8.763 19.571 19.57v167.5c0 10.809-8.765 19.572-19.571 19.572zM680.894 669.016c-10.807 0-19.568-8.763-19.568-19.571v-167.501c0-10.808 8.762-19.57 19.568-19.57 10.81 0 19.571 8.763 19.571 19.57v167.5c0 10.809-8.762 19.572-19.571 19.572zM996.383 716.472h-220.536v18.1c0 23.881-19.429 43.308-43.31 43.308h-36.927c-19.753 0-36.456-13.293-41.644-31.401h-276.155c-5.188 18.108-21.892 31.401-41.645 31.401h-43.961c-23.881 0-43.306-19.427-43.306-43.308v-18.1h-221.282v-301.556h221.282v-18.117c0-23.881 19.425-43.31 43.306-43.31h43.961c22.695 0 41.369 17.551 43.164 39.792h40.464c-32.804-54.378-55.953-104.67-55.953-143.104 0-72.809 66.643-132.057 148.557-132.057 81.889 0 148.506 59.248 148.506 132.057 0 38.417-23.143 88.708-55.937 143.104h47.479c1.796-22.241 20.47-39.792 43.164-39.792h36.927c23.881 0 43.31 19.429 43.31 43.31v18.117h220.536v301.556zM248.153 454.059h-181.397v223.27h181.397v-223.27zM614.889 281.742c0.45-11.73 1.215-31.364-6.364-51.112-6.535-17.172-16.846-31.104-22.39-38.592l-0.6-0.826c-4.799-6.499-12.206-9.935-19.708-9.935-5.045 0-10.139 1.553-14.503 4.783-10.878 8.022-13.179 23.341-5.162 34.212l0.642 0.864c4.433 5.992 11.85 16.021 16.023 26.963 3.995 10.426 3.519 22.753 3.172 31.75-0.524 13.503 9.996 24.87 23.499 25.391 13.246 0.616 24.865-9.995 25.391-23.498zM736.704 396.799c0-2.299-1.873-4.167-4.167-4.167h-36.927c-2.294 0-4.167 1.868-4.167 4.167v35.625h-111.161c-16.017 24.46-33.269 49.353-50.633 74.031-3.882 5.429-10.349 8.668-17.276 8.668-6.932 0-13.408-3.297-17.326-8.85-17.336-24.615-34.56-49.446-50.551-73.85h-104.163v-35.625c0-2.299-1.873-4.167-4.167-4.167h-43.961c-2.291 0-4.163 1.868-4.163 4.167v337.773c0 2.298 1.872 4.166 4.163 4.166h43.961c2.294 0 4.167-1.868 4.167-4.166v-27.235h351.11v27.235c0 2.298 1.873 4.166 4.167 4.166h36.927c2.294 0 4.167-1.868 4.167-4.166v-337.772zM957.24 454.059h-181.393v223.27h181.393v-223.27z" />
<glyph unicode="&#xe906;" glyph-name="afectacion" d="M962.732 868.156c-5.221 3.518-11.84 4.191-17.666 1.836l-140.965-57.146c9.068-9.512 17.178-19.893 24.16-31.012l105.001 42.57v-649.166l-255.63-103.643v292.096c-2.489-2.34-5.001-4.684-7.561-7.033l-3.56-3.285c-2.685-2.475-6.101-3.709-9.507-3.709-3.377 0-6.754 1.215-9.43 3.645l-3.617 3.285c-0.528 0.484-1.957 1.801-4.141 3.871v-288.869l-255.626 103.642v649.166l102.41-41.52c7.060 11.096 15.237 21.451 24.38 30.922l-138.592 56.186c-0.111 0.047-0.226 0.082-0.339 0.125-0.179 0.070-0.358 0.139-0.54 0.203-0.213 0.074-0.426 0.143-0.642 0.209-0.137 0.041-0.274 0.086-0.414 0.125-0.258 0.074-0.517 0.141-0.776 0.201-0.098 0.023-0.195 0.049-0.293 0.070-0.3 0.066-0.601 0.125-0.901 0.176-0.062 0.012-0.122 0.023-0.184 0.033-0.334 0.053-0.667 0.098-1.002 0.133-0.034 0.004-0.067 0.008-0.102 0.012-0.356 0.037-0.714 0.063-1.071 0.078-0.017 0-0.033 0.002-0.051 0.002-0.369 0.016-0.739 0.021-1.109 0.014-0.008 0-0.018 0-0.025 0-0.375-0.006-0.748-0.025-1.121-0.053-0.008-0.002-0.018-0.002-0.025-0.002-0.368-0.029-0.735-0.070-1.102-0.121-0.018-0.002-0.037-0.004-0.056-0.008-0.352-0.049-0.701-0.109-1.049-0.18-0.038-0.006-0.075-0.014-0.112-0.021-0.324-0.066-0.646-0.143-0.967-0.227-0.066-0.018-0.131-0.033-0.197-0.051-0.285-0.078-0.568-0.164-0.851-0.256-0.104-0.033-0.208-0.066-0.311-0.102-0.233-0.080-0.465-0.166-0.695-0.256-0.095-0.037-0.19-0.066-0.285-0.105l-293.443-118.964c-7.137-2.889-11.803-9.822-11.803-17.521v-689.975c0-6.287 3.129-12.168 8.346-15.686 3.166-2.133 6.85-3.223 10.561-3.223 2.4 0 4.815 0.463 7.105 1.385l286.345 116.088 286.344-116.088c0.035-0.014 0.072-0.023 0.108-0.037 0.518-0.207 1.042-0.393 1.573-0.553 0.105-0.031 0.213-0.053 0.319-0.084 0.422-0.117 0.846-0.223 1.274-0.311 0.186-0.039 0.372-0.070 0.559-0.104 0.375-0.066 0.75-0.119 1.128-0.162 0.173-0.020 0.345-0.043 0.518-0.057 0.54-0.047 1.080-0.078 1.624-0.078 0.549 0 1.097 0.031 1.642 0.080 0.149 0.012 0.298 0.031 0.446 0.049 0.421 0.047 0.841 0.107 1.258 0.182 0.141 0.025 0.28 0.051 0.421 0.078 0.515 0.105 1.025 0.227 1.53 0.375 0.028 0.008 0.057 0.014 0.084 0.021 0.544 0.162 1.082 0.35 1.61 0.561 0.038 0.016 0.077 0.025 0.114 0.039l293.444 118.965c7.137 2.893 11.803 9.824 11.803 17.525v689.975c0 6.287-3.129 12.168-8.346 15.685zM346.366 175.238l-255.629-103.642v649.17l255.629 103.639v-649.167zM485.752 665.447c0.044-0.43 0.063-0.861 0.063-1.289 0.017-0.146 0.153-0.959 0.173-1.104 12.546-122.072 141.4-251.861 171.038-280.246 107.904 100.942 148.787 190.385 164.054 248.053 4.137 12.518 6.528 25.217 7.577 39.66 0.595 6.738 0.642 10.311 0.642 10.646 0 91.607-77.288 166.146-172.293 166.146-94.889 0-172.088-74.539-172.088-166.172 0-5.963 0.476-11.815 0.834-15.694zM658.331 769.869c52.104 0 94.505-42.414 94.505-94.518 0-52.131-42.4-94.547-94.505-94.547-52.139 0-94.542 42.416-94.542 94.547 0 52.104 42.403 94.518 94.542 94.518z" />
<glyph unicode="&#xe907;" glyph-name="afectado_tercero" d="M819.47 138.426h-614.911l-0.555 6.601c-0.411 5.166-0.669 10.331-0.669 15.544 0 112.295 95.813 180.854 232.989 208.213 0 0 37.136 7.509 75.658 7.509 38.561 0 75.657-7.509 75.657-7.509 137.205-27.359 233.027-95.918 233.027-208.213 0-5.213-0.277-10.379-0.669-15.544l-0.527-6.601zM684.149 585.989c0-94.751-76.805-171.575-171.575-171.575-94.742 0-171.566 76.824-171.566 171.575 0 94.761 76.825 171.585 171.566 171.585 94.77 0 171.575-76.824 171.575-171.585zM202.397 573.927c33.586 0 60.906-27.325 60.906-60.907s-27.32-60.897-60.906-60.897c-33.577 0-60.897 27.315-60.897 60.897s27.32 60.907 60.897 60.907zM202.397 613.109c-55.253 0-100.080-44.826-100.080-100.089 0-55.282 44.826-100.079 100.080-100.079 55.281 0 100.088 44.797 100.088 100.079 0.001 55.263-44.806 100.089-100.088 100.089v0zM47.208 249.305c-10.819 0-19.591 8.772-19.591 19.591v9.709c0 55.564 48.825 95.904 133.962 110.679 0.827 0.144 20.667 3.549 41.593 3.549 20.945 0 40.761-3.405 41.593-3.554 17.128-2.961 33.036-6.993 47.275-11.986 10.207-3.578 15.583-14.76 12-24.972-3.578-10.212-14.741-15.593-24.972-12-12.191 4.276-25.986 7.758-41 10.355-0.182 0.029-17.434 2.975-34.896 2.975-17.448 0-34.729-2.946-34.901-2.975-37.891-6.577-101.471-24.685-101.471-72.070v-9.709c-0.001-10.82-8.773-19.592-19.592-19.592zM821.603 573.927c33.577 0 60.897-27.325 60.897-60.907s-27.32-60.897-60.897-60.897c-33.586 0-60.907 27.315-60.907 60.897s27.321 60.907 60.907 60.907zM821.603 613.109c-55.282 0-100.089-44.826-100.089-100.089 0-55.282 44.807-100.079 100.089-100.079 55.253 0 100.080 44.797 100.080 100.079 0 55.263-44.827 100.089-100.080 100.089v0zM976.792 249.305c-10.819 0-19.591 8.772-19.591 19.591v9.709c0 47.385-63.58 65.494-101.476 72.070-0.167 0.029-17.448 2.975-34.896 2.975-17.602 0-34.705-2.942-34.877-2.97-15.033-2.602-28.827-6.084-41.019-10.36-10.217-3.573-21.39 1.789-24.972 12s1.793 21.394 12 24.972c14.239 4.994 30.147 9.025 47.294 11.991 0.813 0.144 20.629 3.549 41.574 3.549 20.926 0 40.766-3.405 41.598-3.554 85.133-14.77 133.957-55.11 133.957-110.674v-9.709c-0.001-10.818-8.773-19.59-19.592-19.59z" />
<glyph unicode="&#xe908;" glyph-name="area_responsable" d="M512.008 340.975c-111.096 0-201.475 90.369-201.475 201.449 0 2.328 0.139 4.615 0.295 6.908l0.252 3.646c0.84 12.199 11.395 21.326 23.637 20.59 12.209-0.84 21.43-11.422 20.59-23.639l-0.225-3.271c-0.113-1.629-0.217-2.918-0.217-4.234 0-86.637 70.498-157.117 157.143-157.117 86.637 0 157.127 70.48 157.127 157.117 0 1.195-0.088 2.371-0.166 3.559l-0.25 4.146c-0.754 12.217 8.537 22.738 20.754 23.49 12.252 0.615 22.738-8.527 23.49-20.754l0.217-3.498c0.174-2.736 0.285-4.832 0.285-6.943 0-111.080-90.377-201.449-201.457-201.449zM741.996 658.066h-16.988c0.018 0.295 0.043 0.57 0.043 0.848 0 81.893-46.297 152.91-114.066 188.582v-129.912c0-9.836-7.975-17.836-17.811-17.836-9.568 0-17.248 7.611-17.664 17.049v131.834c0 12.529-10.191 22.746-22.771 22.746-12.555 0-68.74 0-81.32 0-12.547 0-22.746-10.217-22.746-22.746l-0.010-131.047c0-9.836-7.975-17.836-17.826-17.836-9.828 0-17.811 8-17.811 17.836v129.912c-67.789-35.672-114.086-106.689-114.086-188.582 0-0.277 0.027-0.553 0.053-0.848h-16.988c-15.551 0-28.123-14.789-28.123-33.076 0-18.26 12.572-33.057 28.123-33.057h459.992c15.533 0 28.121 14.797 28.121 33.057-0.001 18.287-12.589 33.076-28.122 33.076zM177.219 24.629c-11.516 0-21.238 8.9-22.078 20.563-0.234 3.213-1.395 19.543-1.395 25.707 0 152.277 145.107 200.748 271.529 225.979l10.85 1.922c8.105 1.412 16.234-1.713 21.301-8.139l54.582-69.52 54.566 69.52c4.996 6.355 13.127 9.508 21.031 8.182 6.996-1.15 11.092-1.965 11.092-1.965 126.439-25.23 271.557-73.709 271.557-225.979 0-6.154-1.143-22.477-1.377-25.68-0.865-12.227-11.551-21.473-23.682-20.529-12.217 0.865-21.402 11.473-20.529 23.68 0.52 7.326 1.256 19.162 1.256 22.529 0 94.326-69.658 148.814-232.732 181.863l-63.742-81.207c-4.209-5.352-10.633-8.477-17.439-8.477s-13.23 3.125-17.438 8.477l-63.762 81.217c-162.943-32.955-232.73-87.451-232.73-181.873 0-3.367 0.744-15.186 1.271-22.502 0.885-12.209-8.295-22.824-20.502-23.707-0.547-0.044-1.092-0.061-1.629-0.061z" />
<glyph unicode="&#xe909;" glyph-name="arrow_afectacion" d="M508.8 135.36c8.92 0.674 17.022 3.688 23.838 8.424l-0.158-0.104 192 152.96c8.672 7.096 14.164 17.799 14.164 29.785 0 9.104-3.168 17.468-8.462 24.049l0.058-0.074c-7.267 8.58-18.048 13.99-30.093 13.99-8.928 0-17.161-2.972-23.765-7.981l0.098 0.071-128-103.040v506.56c0.102 1.049 0.16 2.269 0.16 3.502 0 21.208-17.192 38.4-38.4 38.4s-38.4-17.192-38.4-38.4c0-1.233 0.058-2.452 0.172-3.655l-0.012 0.154v-506.56l-128 103.040c-6.771 5.435-15.469 8.722-24.934 8.722-12.507 0-23.674-5.74-31.009-14.73l-0.057-0.072c-5.218-6.462-8.377-14.777-8.377-23.829 0-11.927 5.484-22.574 14.067-29.556l0.070-0.055 192-152.96c5.884-5.188 13.658-8.354 22.172-8.354 0.53 0 1.058 0.012 1.582 0.037l-0.074-0.003z" />
<glyph unicode="&#xe90a;" glyph-name="arrow_general" d="M708.16 456v0c6.788-6.921 10.977-16.411 10.977-26.88s-4.189-19.959-10.983-26.886l0.006 0.006-304.64-304.32c-6.851-6.941-16.363-11.241-26.88-11.241s-20.029 4.299-26.876 11.236l-0.004 0.004c-6.788 6.921-10.977 16.411-10.977 26.88s4.189 19.959 10.983 26.886l277.434 277.434-277.44 277.44c-6.788 6.921-10.977 16.411-10.977 26.88s4.189 19.959 10.983 26.886l-0.006-0.006c6.921 6.788 16.411 10.977 26.88 10.977s19.959-4.189 26.886-10.983l304.634-304.634c6.788-6.921 10.977-16.411 10.977-26.88s-4.189-19.959-10.983-26.886l0.006 0.006z" />
<glyph unicode="&#xe90b;" glyph-name="arrow_left" d="M349.76 421.12v0c-6.788 6.921-10.977 16.411-10.977 26.88s4.189 19.959 10.983 26.886l-0.006-0.006 304.64 304.32c6.921 6.788 16.411 10.977 26.88 10.977s19.959-4.189 26.886-10.983l-0.006 0.006c6.788-6.921 10.977-16.411 10.977-26.88s-4.189-19.959-10.983-26.886l-277.434-277.434 277.44-277.44c6.788-6.921 10.977-16.411 10.977-26.88s-4.189-19.959-10.983-26.886l0.006 0.006c-6.921-6.788-16.411-10.977-26.88-10.977s-19.959 4.189-26.886 10.983l-304.634 304.634c-6.788 6.921-10.977 16.411-10.977 26.88s4.189 19.959 10.983 26.886l-0.006-0.006z" />
<glyph unicode="&#xe90c;" glyph-name="arrow-down" d="M555.84 249.92v0c-6.921-6.788-16.411-10.977-26.88-10.977s-19.959 4.189-26.886 10.983l0.006-0.006-304.32 304.64c-6.941 6.851-11.241 16.363-11.241 26.88s4.299 20.029 11.236 26.876l0.004 0.004c6.921 6.788 16.411 10.977 26.88 10.977s19.959-4.189 26.886-10.983l277.434-277.434 277.44 277.12c6.921 6.788 16.411 10.977 26.88 10.977s19.959-4.189 26.886-10.983l-0.006 0.006c6.788-6.921 10.977-16.411 10.977-26.88s-4.189-19.959-10.983-26.886l-304.634-304.634c-6.921-6.788-16.411-10.977-26.88-10.977s-19.959 4.189-26.886 10.983l0.006-0.006z" />
<glyph unicode="&#xe90d;" glyph-name="auditoria" d="M570.3 24.623c-210.207 0-390.494 156.88-419.363 364.922-1.991 14.359 8.037 27.618 22.398 29.612 14.354 2.022 27.624-8.034 29.618-22.398 25.284-182.213 183.21-319.624 367.347-319.624 204.495 0 370.865 166.367 370.865 370.865s-166.37 370.865-370.865 370.865c-152.154 0-287.266-91.366-344.213-232.766-5.419-13.452-20.712-19.982-34.165-14.546-13.45 5.413-19.963 20.712-14.547 34.158 64.999 161.389 219.229 265.666 392.925 265.666 233.451 0 423.377-189.928 423.377-423.377s-189.926-423.377-423.377-423.377zM56.557 222.004c-4.869 0-9.798 1.356-14.196 4.193-12.19 7.853-15.703 24.103-7.849 36.29l128.863 199.974 203.538-131.171c12.19-7.852 15.703-24.103 7.849-36.29-7.852-12.193-24.102-15.721-36.293-7.846l-159.396 102.716-100.42-155.826c-5.019-7.789-13.469-12.040-22.096-12.040zM757.054 421.961h-217.136v264.474c0 14.501 11.755 26.256 26.257 26.256s26.256-11.755 26.256-26.256v-211.962h164.623c14.502 0 26.257-11.755 26.257-26.256s-11.755-26.256-26.257-26.256z" />
<glyph unicode="&#xe90e;" glyph-name="calendario" d="M440.885 474.212c-71.329 0-107.511-53.932-107.511-160.362 0-106.394 36.182-160.326 107.511-160.326 71.302 0 107.465 53.933 107.465 160.326 0 106.43-36.163 160.362-107.465 160.362zM440.885 206.99c-33.146 0-49.947 35.977-49.947 106.859 0 70.91 16.801 106.877 49.947 106.877 33.156 0 49.958-35.967 49.958-106.877-0.001-70.882-16.802-106.859-49.958-106.859zM677.631 468.162h-25.039c-3.872 0-7.65-1.564-10.322-4.301-18.422-18.375-38.955-32.467-59.387-40.771-5.539-2.271-9.123-7.596-9.123-13.562v-26.222c0-5.101 2.588-9.755 6.879-12.398 4.087-2.588 9.532-2.941 14.103-0.819 15.87 7.651 29.702 15.675 42.009 24.332v-220.215c0-8.080 6.58-14.651 14.65-14.651h26.23c8.062 0 14.614 6.571 14.614 14.651v279.342c0 8.060-6.553 14.614-14.614 14.614zM905.182 564.13h-786.364c-13.161 0-23.829 10.667-23.829 23.829s10.668 23.829 23.829 23.829h786.363c13.162 0 23.828-10.667 23.828-23.829s-10.665-23.829-23.827-23.829zM716.931 637.032c-21.056 0-38.126 17.071-38.126 38.127v158.091c0 21.056 17.070 38.127 38.126 38.127s38.126-17.071 38.126-38.127v-158.091c0-21.055-17.071-38.127-38.126-38.127zM307.069 637.032c-21.055 0-38.127 17.071-38.127 38.127v158.091c0 21.056 17.072 38.127 38.127 38.127s38.126-17.071 38.126-38.127v-158.091c0.001-21.055-17.071-38.127-38.126-38.127zM811.717 24.623h-599.471c-74.15 0-134.477 59.019-134.477 131.563v490.508c0 72.553 60.327 131.581 134.477 131.581h599.471c74.173 0 134.514-59.028 134.514-131.581v-490.509c0-35.092-14.074-68.141-39.625-93.055-25.463-24.828-59.165-38.507-94.889-38.507zM212.246 730.617c-47.873 0-86.818-37.646-86.818-83.923v-490.509c0-46.267 38.945-83.904 86.818-83.904h599.471c23.219 0 45.104 8.871 61.616 24.974 16.275 15.866 25.239 36.796 25.239 58.931v490.508c0 46.276-38.965 83.923-86.855 83.923h-599.471z" />
<glyph unicode="&#xe90f;" glyph-name="cancelar" d="M585.28 428.48l259.84 259.84c7.074 6.969 11.456 16.653 11.456 27.36s-4.382 20.391-11.451 27.355l-0.005 0.005c-7.005 6.996-16.677 11.322-27.36 11.322s-20.355-4.326-27.36-11.322v0l-259.84-259.84-259.84 259.84c-6.888 6.405-16.153 10.336-26.336 10.336-21.384 0-38.72-17.336-38.72-38.72 0-10.183 3.931-19.447 10.357-26.359l-0.022 0.024 259.84-259.84-259.84-260.16c-6.405-6.888-10.336-16.153-10.336-26.336 0-21.384 17.336-38.72 38.72-38.72 10.183 0 19.447 3.931 26.359 10.357l-0.024-0.022 259.84 260.16 259.84-260.16c7.005-6.996 16.677-11.322 27.36-11.322s20.355 4.326 27.36 11.322v0c7.074 6.969 11.456 16.653 11.456 27.36s-4.382 20.391-11.451 27.355l-0.005 0.005z" />
<glyph unicode="&#xe910;" glyph-name="cargar_plantilla" d="M361.6 608l121.6 96v-476.8c-0.102-1.019-0.16-2.201-0.16-3.398 0-19.971 16.189-36.16 36.16-36.16s36.16 16.189 36.16 36.16c0 1.196-0.058 2.379-0.172 3.546l0.012-0.148v476.8l121.6-96c6.129-4.474 13.812-7.159 22.122-7.159 11.322 0 21.48 4.983 28.401 12.876l0.037 0.043c5.045 6.088 8.107 13.98 8.107 22.587 0 11.144-5.132 21.089-13.161 27.601l-0.066 0.052-180.8 144.32c-5.615 4.981-13.048 8.023-21.192 8.023-0.425 0-0.848-0.008-1.269-0.025l0.061 0.002c-8.441-0.775-16.082-3.655-22.561-8.104l0.161 0.104-180.16-144.32c-8.198-6.741-13.386-16.884-13.386-28.239 0-8.445 2.87-16.22 7.687-22.402l-0.061 0.082c6.956-7.905 17.095-12.866 28.392-12.866 8.469 0 16.288 2.788 22.587 7.497l-0.099-0.071zM826.24 428.48c-15.376 0-27.84-12.464-27.84-27.84v0-272.64h-558.080v272.64c-1.566 14.209-13.504 25.162-28 25.162s-26.434-10.954-27.989-25.036l-0.011-0.127v-301.12c0-15.376 12.464-27.84 27.84-27.84v0h614.080c0.095-0.001 0.207-0.002 0.32-0.002 15.376 0 27.84 12.464 27.84 27.84 0 0.001 0 0.001 0 0.002v0 301.12c0 0.001 0 0.001 0 0.002 0 15.376-12.464 27.84-27.84 27.84-0.113 0-0.225-0.001-0.337-0.002h0.017z" />
<glyph unicode="&#xe911;" glyph-name="check" d="M429.12 186.56c-0.055 0-0.12-0.001-0.185-0.001-8.791 0-16.753 3.545-22.537 9.283l-229.438 229.438c-5.681 5.875-9.182 13.889-9.182 22.72 0 18.061 14.641 32.702 32.702 32.702 9.229 0 17.565-3.823 23.511-9.972l206.729-206.729 433.28 435.84c5.784 5.751 13.757 9.305 22.56 9.305s16.776-3.555 22.562-9.307l-0.002 0.002c5.751-5.784 9.305-13.757 9.305-22.56s-3.555-16.776-9.307-22.562l0.002 0.002-457.28-458.88c-5.782-5.736-13.744-9.281-22.535-9.281-0.065 0-0.13 0-0.195 0.001h0.010z" />
<glyph unicode="&#xe913;" glyph-name="comentarios" d="M635.908 24.623c-6.125 0-12.11 2.524-16.402 7.215l-180.564 197.050h-246.071c-69.313 0-125.699 57.037-125.699 127.141v388.216c0 70.099 56.386 127.132 125.699 127.132h638.223c69.331 0 125.734-57.033 125.734-127.132v-388.217c0-70.104-56.403-127.141-125.734-127.141h-172.952v-182.023c0-9.174-5.63-17.402-14.179-20.729-2.624-1.017-5.352-1.512-8.055-1.512zM192.871 826.894c-44.778 0-81.217-37.076-81.217-82.649v-388.217c0-45.578 36.438-82.658 81.217-82.658h255.854c6.238 0 12.189-2.619 16.395-7.215l148.539-162.102v147.076c0 12.285 9.957 22.241 22.242 22.241h195.193c44.805 0 81.252 37.081 81.252 82.658v388.217c0 45.573-36.447 82.649-81.252 82.649h-638.223zM478.421 522.205l-9.844 146.402c-1.808 28.531-2.728 49.026-2.728 61.459 0 16.924 4.439 30.13 13.283 39.583 8.845 9.47 20.547 14.231 35.039 14.231 17.48 0 29.191-6.056 35.152-18.193 5.891-12.155 8.826-29.609 8.826-52.397 0-13.493-0.678-27.133-2.18-40.964l-13.119-150.746c-1.434-17.915-4.439-31.686-9.148-41.225-4.684-9.635-12.459-14.396-23.232-14.396-11.033 0-18.635 4.64-22.928 13.918-4.282 9.269-7.357 23.379-9.121 42.328zM512.313 321.076c-12.441 0-23.301 4.023-32.537 12.059-9.322 8.037-13.926 19.322-13.926 33.771 0 12.65 4.439 23.415 13.283 32.241 8.845 8.896 19.723 13.293 32.555 13.293 12.875 0 23.787-4.396 32.857-13.293 9.053-8.827 13.605-19.591 13.605-32.241 0-14.283-4.553-25.465-13.779-33.605-9.156-8.141-19.808-12.225-32.058-12.225z" />
<glyph unicode="&#xe914;" glyph-name="comunicacion" d="M939.841 34.295h-851.915c-33.815 0-60.309 34.775-60.309 79.16v609.51c0 44.385 26.493 79.16 60.309 79.16 9.74 0 15.085 5.389 15.085 7.178 0 29.873 34.036 52.402 79.16 52.402h735.053c43.644 0 79.159-35.517 79.159-79.16v-669.090c0-44.385-24.836-79.16-56.542-79.16zM148.201 807.238c-1.248-27.939-27.808-50.348-60.275-50.348-4.605 0-15.074-12.821-15.074-33.926v-609.51c0-21.104 10.469-33.926 15.074-33.926h851.562c3.379 1.546 11.662 13.727 11.662 33.926v669.090c0 18.707-15.218 33.926-33.926 33.926h-735.053c-19.426 0.001-30.955-6.25-33.97-9.232zM106.788 34.295h-18.851c-12.49 0-22.617 10.127-22.617 22.617s10.127 22.617 22.617 22.617h10.326c2.187 6.074 4.748 17.735 4.748 33.926v666.053c0 12.49 10.127 22.617 22.617 22.617s22.617-10.127 22.617-22.617v-666.053c0-38.266-10.889-79.16-41.457-79.16zM489.378 718.459h-284.591c-15.615 0-28.271 12.656-28.271 28.271s12.655 28.271 28.271 28.271h284.591c15.615 0 28.271-12.656 28.271-28.271s-12.656-28.271-28.271-28.271zM489.378 598.594h-284.591c-15.615 0-28.271 12.656-28.271 28.271s12.655 28.271 28.271 28.271h284.591c15.615 0 28.271-12.656 28.271-28.271s-12.656-28.271-28.271-28.271zM489.378 478.729h-284.591c-15.615 0-28.271 12.655-28.271 28.271s12.655 28.271 28.271 28.271h284.591c15.615 0 28.271-12.655 28.271-28.271s-12.656-28.271-28.271-28.271zM881.41 358.862h-676.623c-15.615 0-28.271 12.655-28.271 28.271 0 15.614 12.655 28.271 28.271 28.271h676.623c15.615 0 28.271-12.656 28.271-28.271s-12.656-28.271-28.271-28.271zM489.378 238.985h-284.591c-15.615 0-28.271 12.655-28.271 28.271s12.655 28.271 28.271 28.271h284.591c15.615 0 28.271-12.655 28.271-28.271s-12.656-28.271-28.271-28.271zM489.378 119.109h-284.591c-15.615 0-28.271 12.655-28.271 28.271s12.655 28.271 28.271 28.271h284.591c15.615 0 28.271-12.655 28.271-28.271s-12.656-28.271-28.271-28.271zM881.41 238.985h-284.592c-15.614 0-28.271 12.655-28.271 28.271s12.656 28.271 28.271 28.271h284.592c15.615 0 28.271-12.655 28.271-28.271s-12.656-28.271-28.271-28.271zM881.41 119.109h-284.592c-15.614 0-28.271 12.655-28.271 28.271s12.656 28.271 28.271 28.271h284.592c15.615 0 28.271-12.655 28.271-28.271s-12.656-28.271-28.271-28.271zM852.188 730.52c6.129 0 11.309-5.18 11.309-11.309v-189.219c0-6.129-5.18-11.309-11.309-11.309h-227.584c-6.129 0-11.308 5.18-11.308 11.309v189.219c0 6.129 5.179 11.309 11.308 11.309h227.584zM852.188 775.754h-227.584c-31.098 0-56.542-25.445-56.542-56.543v-189.219c0-31.099 25.444-56.543 56.542-56.543h227.584c31.099 0 56.542 25.444 56.542 56.543v189.219c0 31.098-25.443 56.543-56.542 56.543v0z" />
<glyph unicode="&#xe915;" glyph-name="critico" d="M478.217 417.601l-9.822 147.096c-1.84 28.656-2.762 49.231-2.762 61.715 0 16.999 4.442 30.246 13.359 39.777 8.891 9.514 20.621 14.271 35.164 14.271 17.604 0 29.36-6.091 35.303-18.264 5.941-12.182 8.908-29.743 8.908-52.667 0-13.516-0.717-27.237-2.148-41.154l-13.205-151.392c-1.434-18.009-4.51-31.828-9.217-41.452-4.713-9.62-12.488-14.437-23.34-14.437-11.049 0-18.721 4.667-23.025 13.976-4.287 9.313-7.374 23.49-9.215 42.531zM512.299 215.549c-12.48 0-23.393 4.041-32.693 12.126-9.326 8.086-13.973 19.398-13.973 33.929 0 12.693 4.442 23.49 13.359 32.399 8.891 8.9 19.803 13.362 32.692 13.362 12.907 0 23.912-4.462 33.009-13.362 9.121-8.909 13.674-19.706 13.674-32.399 0-14.326-4.604-25.587-13.811-33.78-9.214-8.178-19.964-12.275-32.257-12.275zM512 24.623c-233.452 0-423.377 189.924-423.377 423.377s189.925 423.377 423.377 423.377c233.453 0 423.377-189.925 423.377-423.377s-189.924-423.377-423.377-423.377zM512 827.73c-209.387 0-379.73-170.348-379.73-379.73s170.344-379.73 379.73-379.73 379.73 170.347 379.73 379.73c0 209.382-170.343 379.73-379.73 379.73z" />
<glyph unicode="&#xe916;" glyph-name="emergencia" d="M478.251 367.596l-9.824 147.098c-1.839 28.655-2.767 49.231-2.767 61.72 0 16.992 4.449 30.244 13.361 39.772 8.897 9.514 20.624 14.27 35.164 14.27 17.605 0 29.362-6.091 35.304-18.266 5.942-12.182 8.913-29.74 8.913-52.666 0-13.51-0.723-27.237-2.154-41.152l-13.204-151.393c-1.43-18.010-4.511-31.827-9.211-41.451-4.716-9.624-12.497-14.434-23.343-14.434-11.050 0-18.721 4.661-23.028 13.97-4.291 9.313-7.371 23.496-9.211 42.532zM512.33 165.545c-12.481 0-23.39 4.040-32.695 12.127-9.322 8.083-13.974 19.397-13.974 33.929 0 12.693 4.449 23.492 13.361 32.396 8.897 8.901 19.806 13.361 32.695 13.361 12.905 0 23.909-4.46 33.010-13.361 9.117-8.904 13.676-19.703 13.676-32.396 0-14.328-4.605-25.59-13.817-33.78-9.212-8.182-19.964-12.276-32.256-12.276zM853.579 24.623h-683.095c-57.481 0-105.34 25.826-131.305 70.85-25.999 45.057-24.426 99.411 4.322 149.121l342.104 549.506c28.186 48.856 74.418 77.278 126.426 77.278 51.984 0 98.274-28.518 126.998-78.242l340.986-547.607c29.266-50.563 30.887-105.013 4.85-150.070-26.005-45.020-73.858-70.836-131.286-70.836zM512.031 822.257c-33.981 0-64.71-19.471-84.31-53.418l-342.113-549.521c-19.308-33.415-20.871-69.857-3.881-99.3 16.957-29.409 49.307-46.275 88.757-46.275h683.094c39.411 0 71.761 16.871 88.756 46.285 17.005 29.434 15.393 65.962-4.427 100.221l-340.99 547.621c-20.133 34.816-50.919 54.387-84.886 54.387z" />
<glyph unicode="&#xe917;" glyph-name="exportar" d="M309.44 343.36l180.16-144.32c5.448-4.435 12.473-7.121 20.125-7.121 0.8 0 1.594 0.029 2.38 0.087l-0.105-0.006c8.452 0.664 16.116 3.561 22.542 8.095l-0.142-0.095 180.48 144.32c8.154 6.682 13.316 16.753 13.316 28.031 0 8.552-2.969 16.41-7.931 22.601l0.055-0.071c-6.906 7.999-17.060 13.031-28.389 13.031-8.343 0-16.048-2.729-22.272-7.342l0.101 0.072-121.6-96v475.52c0.102 1.019 0.16 2.201 0.16 3.398 0 19.971-16.189 36.16-36.16 36.16s-36.16-16.189-36.16-36.16c0-1.196 0.058-2.379 0.172-3.546l-0.012 0.148v-477.76l-121.6 96c-6.173 4.494-13.906 7.19-22.269 7.19-11.382 0-21.597-4.993-28.575-12.909l-0.036-0.042c-4.969-6.063-7.98-13.896-7.98-22.432 0-11.231 5.212-21.244 13.349-27.753l0.071-0.055zM819.2 428.48c-0.095 0.001-0.207 0.002-0.32 0.002-15.376 0-27.84-12.464-27.84-27.84 0-0.001 0-0.001 0-0.002v0-272.64h-558.080v272.64c-1.566 14.209-13.504 25.162-28 25.162s-26.434-10.954-27.989-25.036l-0.011-0.127v-301.12c0-15.376 12.464-27.84 27.84-27.84v0h614.4c15.376 0 27.84 12.464 27.84 27.84v0 301.12c0 15.376-12.464 27.84-27.84 27.84v0z" />
<glyph unicode="&#xe918;" glyph-name="falla_suministros" d="M821.953 193.257l-194.461 194.95 125.801 259.756c3.617 7.479 2.631 16.368-2.547 22.861-5.178 6.502-13.604 9.479-21.715 7.59l-182.843-41.954 74.623 205.976c2.395 6.619 1.416 13.99-2.623 19.75s-10.633 9.191-17.676 9.191h-201.496c-10.078 0-18.814-6.966-21.049-16.79l-40.109-176.016-93.021 93.255c-11.781 11.814-30.924 11.831-42.738 0.051s-11.84-30.924-0.051-42.738l119.932-120.237-40.436-177.447c-1.645-7.228 0.521-14.792 5.75-20.037s12.777-7.48 20.020-5.827l177.746 39.822 6.807-6.823-75.186-388.271c-2.064-10.652 4.090-21.167 14.379-24.591 2.252-0.751 4.545-1.104 6.814-1.104 8.078 0 15.734 4.554 19.43 12.177l142.286 293.794 179.574-180.025c5.904-5.92 13.645-8.88 21.395-8.88 7.725 0 15.449 2.943 21.344 8.829 11.816 11.781 11.839 30.923 0.050 42.738zM416.236 828.2h153.496l-77.642-214.29c-2.689-7.43-1.105-15.736 4.133-21.656 5.236-5.92 13.23-8.509 20.998-6.737l177.59 40.748-99.613-205.682-52.709 52.841c0.658 6.523-1.672 13.041-6.42 17.651-4.074 3.955-9.488 6.105-15.045 6.105-0.705 0-1.414-0.039-2.123-0.108l-144.995 145.36 42.33 185.768zM331.24 455.193l26.79 117.569 90.958-91.187-117.748-26.382zM490.496 204.396l38.199 197.271 38.6-38.697-76.799-158.574z" />
<glyph unicode="&#xe919;" glyph-name="falta_agua" d="M642.529 532.521h-273.28c-12.515 0-22.663 10.146-22.663 22.662l0.177 93.86c0.16 12.404 10.258 22.375 22.663 22.375h77.195v14.153c-2.932 2.246-5.737 4.659-8.404 7.204l-227.718-18.535c-0.608-0.056-1.223-0.078-1.837-0.078h-8.499c-8.51 0-16.3 4.77-20.173 12.339l-3.873 7.569c-25.49 50.193-25.49 101.053-0.039 151.225 0.559 1.096 1.2 2.136 1.925 3.131l5.511 7.525c4.271 5.832 11.060 9.273 18.286 9.273h8.521c0.797 0 1.599-0.045 2.39-0.122l223.983-23.78c19.266 19.243 45.309 30.055 73.222 30.055 2.197 0 4.299-0.145 7.502-0.465 24.24-1.627 47.467-12.172 64.99-29.357l231.125 24.566c9.417 0.918 18.347-3.896 22.602-12.283l4.338-8.543c25.429-50.194 25.424-101.042 0.006-151.158l-4.244-8.322c-4.171-8.199-12.792-13.058-22.043-12.305l-233.189 19.055c-2.994-2.844-6.142-5.5-9.45-7.967v-13.18h70.976c12.516 0 22.663-10.146 22.663-22.662v-93.573c0-12.516-10.147-22.662-22.663-22.662zM391.912 577.846h227.955v48.247h-70.976c-12.515 0-22.663 10.147-22.663 22.663v48.136c0 8.244 4.471 15.824 11.68 19.819 6.368 3.529 11.962 8.178 16.621 13.799 4.725 5.688 11.885 8.742 19.293 8.111l228.796-18.69c15.608 33.739 15.63 65.631 0.055 99.448l-226.931-24.123c-7.713-0.742-15.354 2.39-20.184 8.498-10.159 12.869-25.424 20.881-41.879 21.998-1.997 0.178-2.86 0.299-3.762 0.299-18.27 0-35.079-8.166-46.122-22.385-4.808-6.209-12.56-9.396-20.295-8.654l-229.609 24.378c-15.597-33.784-15.592-65.642 0.017-99.403l231.563 18.855c7.47 0.631 14.651-2.467 19.365-8.222 4.399-5.367 9.694-9.849 15.747-13.335 7.032-4.039 11.365-11.529 11.365-19.641v-48.889c0-12.516-10.147-22.663-22.663-22.663h-77.372v-48.246zM739.022 24.623c-3.944 0-7.856 1.028-11.331 3.032-5.218 3.021-9.019 7.979-10.568 13.81l-26.668 100.257c-2.971 11.154 2.921 22.584 13.356 26.812l-10.28 38.155c-1.832 0.509-4.659 1.073-8.847 1.461-32.135-60.586-95.138-100.488-168.012-105.347-4.775-0.31-9.517-0.521-14.546-0.521-78.114 0-148.16 41.132-182.608 105.988h-44.451l-0.122-34.359c-0.044-12.482-10.175-22.585-22.663-22.585h-182.097c-12.516 0-22.663 10.147-22.663 22.663l0.177 283.66c0.16 12.404 10.258 22.375 22.663 22.375h182.121c12.516 0 22.663-10.147 22.663-22.663v-22.972h87.016c4.194 3.707 8.543 7.258 13.019 10.611l0.155 38.365c0.050 12.482 10.181 22.574 22.663 22.574h209.785c12.516 0 22.663-10.147 22.663-22.662v-39.262c4.061-3.088 7.995-6.318 11.774-9.684l39.726-0.232c46.183-1.062 85.223-10.468 119.737-28.748 48.529-25.65 83.469-66.074 103.819-120.131 0.249-0.664 0.47-1.338 0.653-2.014l15.254-55.826c5.76 1.516 11.907 0.697 17.075-2.303 5.212-3.010 9.008-7.979 10.557-13.787l26.668-100.234c3.215-12.072-3.939-24.455-15.996-27.709l-214.787-57.939c-1.942-0.53-3.928-0.785-5.905-0.785zM740.019 131.695l15.061-56.602 171.021 46.134-15.016 56.446c-11.995-3.043-24.184 4.050-27.449 15.99l-20.914 76.553c-16.389 42.902-44.053 74.894-82.235 95.066-28.179 14.928-60.619 22.607-99.183 23.481l-48.192 0.299c-5.87 0.033-11.497 2.357-15.697 6.451-6.722 6.573-14.214 12.648-22.259 18.037-6.274 4.205-10.037 11.266-10.037 18.823v28.239h-164.547l-0.11-27.486c-0.033-7.592-3.856-14.662-10.192-18.834-8.354-5.512-16.245-11.841-23.448-18.834-4.227-4.105-9.887-6.396-15.78-6.396h-118.56c-12.515 0-22.663 10.147-22.663 22.662v22.973h-136.971v-238.047h136.851l0.122 34.359c0.044 12.482 10.175 22.586 22.663 22.586h81.267c9.036 0 17.213-5.367 20.798-13.667 24.267-56.081 82.197-92.321 147.579-92.321 4.044 0 7.851 0.188 11.613 0.42 61.232 4.084 113.396 39.383 136.054 92.111 3.502 8.167 11.448 13.523 20.322 13.723l3.032 0.055c0.022 0 0.044 0 0.061 0 19.741 0 34.116-2.689 44.446-8.244 7.48-3.939 13.329-10.811 17.71-20.937 0.437-1.018 0.797-2.047 1.084-3.109l16.975-63.009c3.015-11.197-2.904-22.694-13.406-26.922z" />
<glyph unicode="&#xe91a;" glyph-name="falta_presion" d="M512.077 24.623c-0.012 0-0.021 0-0.039 0h-1.658c-113.091 0.435-219.243 44.884-298.904 125.154s-123.292 186.756-122.857 299.847c0.904 232.56 190.813 421.753 423.338 421.753h1.663c113.091-0.435 219.248-44.884 298.905-125.154 79.661-80.271 123.292-186.764 122.856-299.855-0.903-232.559-190.796-421.745-423.304-421.745zM511.957 827.729c-208.553 0-378.881-169.688-379.691-378.276-0.392-101.43 38.742-196.934 110.189-268.926 71.447-72.002 166.658-111.865 268.096-112.257h1.491c208.554-0.017 378.882 169.671 379.692 378.268 0.392 101.429-38.742 196.942-110.189 268.936-71.447 72.001-166.658 111.864-268.096 112.256h-1.492zM250.541 426.718c-0.018 0-0.030 0-0.047 0-12.050 0.025-21.803 9.82-21.777 21.866 0.073 34.543 6.296 68.285 18.499 100.313 4.288 11.262 16.901 16.931 28.162 12.617 11.262-4.288 16.914-16.896 12.621-28.166-10.311-27.066-15.575-55.617-15.635-84.85-0.025-12.037-9.791-21.78-21.823-21.78zM773.476 425.627c-0.012 0-0.029 0-0.042 0-12.055 0.025-21.807 9.812-21.781 21.865 0.264 132.146-107.018 239.875-239.154 240.147-0.161 0-0.328 0-0.489 0-44.253 0-87.458-12.14-124.979-35.132-10.281-6.299-23.717-3.076-30.012 7.213-6.295 10.272-3.069 23.707 7.208 30.008 44.39 27.194 95.483 41.559 147.784 41.559 0.196 0 0.388 0 0.579 0 156.2-0.324 283.025-127.669 282.71-283.879-0.026-12.037-9.791-21.781-21.824-21.781zM591.742 447.996c0-44.040-35.703-79.734-79.742-79.734s-79.742 35.694-79.742 79.734c0 44.039 35.702 79.742 79.742 79.742s79.742-35.703 79.742-79.742zM512.916 421.312c-6.666 0-13.379 2.174-19.002 6.65l-205.083 163.21c-13.205 10.502-15.392 29.727-4.885 42.932 10.515 13.196 29.735 15.387 42.931 4.876l205.084-163.21c13.205-10.502 15.392-29.727 4.885-42.932-6.036-7.578-14.94-11.526-23.93-11.526z" />
<glyph unicode="&#xe91b;" glyph-name="favorito" d="M249.815 24.636c-4.126 0-8.223 1.281-11.696 3.793-6.125 4.455-9.185 11.991-7.912 19.463l48.296 281.649-204.618 199.473c-5.428 5.282-7.375 13.194-5.039 20.395 2.345 7.199 8.566 12.444 16.057 13.532l282.788 41.075 126.472 256.267c3.354 6.787 10.269 11.084 17.835 11.084 7.569 0 14.485-4.297 17.838-11.084l126.472-256.268 282.788-41.075c7.491-1.088 13.712-6.333 16.058-13.532 2.336-7.2 0.386-15.112-5.039-20.395l-204.618-199.472 48.308-281.649c1.276-7.472-1.787-15.008-7.912-19.463-6.131-4.441-14.244-5.037-20.953-1.515l-252.941 132.989-252.927-132.989c-2.914-1.529-6.093-2.278-9.257-2.278zM511.999 213.654c3.029 0 6.061-0.729 8.824-2.173l215.833-113.475-41.222 240.327c-1.055 6.156 0.988 12.424 5.454 16.777l174.601 170.21-241.302 35.054c-6.168 0.901-11.506 4.774-14.27 10.364l-107.918 218.673-107.916-218.673c-2.766-5.59-8.102-9.463-14.27-10.364l-241.302-35.054 174.601-170.209c4.466-4.354 6.509-10.621 5.454-16.777l-41.21-240.327 215.823 113.475c2.761 1.444 5.791 2.172 8.82 2.172z" />
<glyph unicode="&#xe91c;" glyph-name="fecha_cambio" d="M459.692 115.337l-155.796 146.619c-15.336 14.433-16.066 38.563-1.639 53.895 14.428 15.335 38.555 16.066 53.895 1.639l96.736-91.040 211.768 254.768c13.46 16.196 37.493 18.402 53.694 4.947 16.192-13.46 18.407-37.498 4.947-53.695l-263.605-317.133zM905.181 564.13h-786.363c-13.162 0-23.829 10.667-23.829 23.829s10.667 23.829 23.829 23.829h786.362c13.162 0 23.829-10.667 23.829-23.829s-10.666-23.829-23.828-23.829zM716.931 637.032c-21.056 0-38.127 17.071-38.127 38.127v158.091c0 21.056 17.071 38.127 38.127 38.127s38.126-17.071 38.126-38.127v-158.091c0-21.055-17.072-38.127-38.126-38.127zM307.068 637.032c-21.055 0-38.126 17.071-38.126 38.127v158.091c0 21.056 17.071 38.127 38.126 38.127 21.056 0 38.127-17.071 38.127-38.127v-158.091c0.001-21.055-17.071-38.127-38.127-38.127zM811.717 24.623h-599.471c-74.149 0-134.476 59.019-134.476 131.563v490.508c0 72.553 60.327 131.581 134.476 131.581h599.471c74.173 0 134.514-59.028 134.514-131.581v-490.509c0-35.092-14.074-68.141-39.626-93.055-25.463-24.828-59.164-38.507-94.888-38.507zM212.246 730.617c-47.873 0-86.818-37.646-86.818-83.923v-490.509c0-46.267 38.945-83.904 86.818-83.904h599.471c23.22 0 45.103 8.871 61.616 24.974 16.275 15.866 25.238 36.796 25.238 58.931v490.508c0 46.276-38.964 83.923-86.854 83.923h-599.471z" />
<glyph unicode="&#xe91d;" glyph-name="filtro" d="M515.84 780.16c-176.32 0-296-15.68-296-55.36v0c-0.067-0.604-0.106-1.304-0.106-2.013 0-4.588 1.609-8.8 4.294-12.102l-0.028 0.035 220.8-283.84c0.867-1.666 1.535-3.598 1.901-5.636l0.019-0.124v-280.32c-0.102-1.406-0.16-3.046-0.16-4.7 0-38.174 30.946-69.12 69.12-69.12s69.12 30.946 69.12 69.12c0 1.654-0.058 3.294-0.172 4.919l0.012-0.219v280.64c0.386 2.045 1.053 3.869 1.968 5.536l-0.048-0.096 220.8 283.84c2.61 3.289 4.188 7.501 4.188 12.081 0 0.365-0.010 0.729-0.030 1.089l0.002-0.050c0.32 40.64-119.040 56.32-295.68 56.32zM555.84 450.88c-6.151-8.224-9.951-18.521-10.239-29.693l-0.001-0.067v-280.32c0.102-0.924 0.16-1.996 0.16-3.082 0-16.436-13.324-29.76-29.76-29.76s-29.76 13.324-29.76 29.76c0 1.085 0.058 2.157 0.171 3.213l-0.011-0.131v280.32c-0.289 11.239-4.089 21.536-10.338 29.897l0.098-0.137-180.8 232.32c58.091-8.933 125.106-14.036 193.312-14.036 9.552 0 19.081 0.1 28.586 0.299l-1.418-0.023c8.043-0.174 17.524-0.273 27.027-0.273 68.143 0 135.095 5.102 200.494 14.944l-7.361-0.911zM708.8 719.040c-55.722-6.528-120.277-10.252-185.702-10.252-2.214 0-4.428 0.004-6.64 0.013l0.342-0.001c-1.896-0.008-4.139-0.012-6.384-0.012-65.395 0-129.92 3.724-193.374 10.972l7.758-0.72-36.8 5.76c10.24 1.92 21.76 3.84 35.2 5.44 53.559 6.557 115.566 10.299 178.446 10.299 4.766 0 9.526-0.021 14.282-0.064l-0.728 0.005c3.997 0.037 8.722 0.058 13.452 0.058 62.916 0 124.959-3.741 185.917-11.014l-7.368 0.716c13.12-1.6 24.96-3.52 34.88-5.44z" />
<glyph unicode="&#xe91e;" glyph-name="grandes_usuarios" d="M913.431 24.623h-802.863c-5.826 0-11.412 2.316-15.529 6.435-4.118 4.118-6.435 9.703-6.435 15.527l0.043 404.333c0 0.814 0.043 1.62 0.138 2.429l44.296 398.494c1.237 11.119 10.639 19.536 21.827 19.536h116.754c11.084 0 20.428-8.253 21.792-19.251l43.595-350.288 169.338 125.96c6.659 4.97 15.557 5.732 22.97 2 7.421-3.724 12.106-11.318 12.106-19.623v-103.155l160.75 120.812c6.65 5.001 15.564 5.819 23.013 2.095 7.447-3.724 12.146-11.335 12.146-19.657l-0.041-103.626 162.998 121.163c6.658 4.961 15.538 5.724 22.969 1.992 7.413-3.724 12.098-11.318 12.098-19.623v-563.59c0-12.13-9.833-21.963-21.965-21.963zM132.534 68.55h758.931v497.928l-163.014-121.171c-6.686-4.953-15.584-5.715-22.97-1.991-7.421 3.732-12.098 11.326-12.098 19.631l0.044 103.336-160.733-120.806c-6.65-5.001-15.565-5.816-23.013-2.092-7.447 3.715-12.148 11.327-12.148 19.648v103.427l-164.517-122.374c-6.279-4.667-14.575-5.634-21.74-2.573-7.183 3.071-12.201 9.729-13.162 17.485l-45.85 368.452h-77.699l-41.99-377.752-0.041-381.148zM685.5 299.638c0-6.863 5.576-12.44 12.447-12.44h102.18c6.872 0 12.448 5.577 12.448 12.44v52.287c0 6.88-5.576 12.457-12.448 12.457h-102.18c-6.871 0-12.447-5.577-12.447-12.457v-52.287zM301.022 299.638c0-6.863 5.577-12.44 12.448-12.44h102.179c6.872 0 12.448 5.577 12.448 12.44v52.287c0 6.88-5.576 12.457-12.448 12.457h-102.178c-6.871 0-12.448-5.577-12.448-12.457v-52.287zM493.263 299.638c0-6.863 5.576-12.44 12.448-12.44h102.176c6.872 0 12.449 5.577 12.449 12.44v52.287c0 6.88-5.577 12.457-12.449 12.457h-102.176c-6.872 0-12.448-5.577-12.448-12.457v-52.287z" />
<glyph unicode="&#xe91f;" glyph-name="imprimir" d="M830.23 365.819c0-16.532-13.388-29.938-29.934-29.938-16.521 0-29.935 13.405-29.935 29.938 0 16.536 13.413 29.941 29.935 29.941 16.547 0.001 29.934-13.405 29.934-29.941zM915.455 150.666h-190.096v95.575c0 4.628-3.76 8.397-8.388 8.397h-409.953c-4.628 0-8.387-3.77-8.387-8.397v-95.575h-190.097l-3.188 17.563c-1.525 8.404-2.297 16.889-2.297 25.234v218.688c0 77.452 63.023 140.472 140.489 140.472h55.026v-119.522l426.868-0.101v119.623h55.027c77.469 0 140.492-63.020 140.492-140.472v-218.688c0-8.312-0.778-16.795-2.307-25.234l-3.189-17.563zM768.121 193.428h110.064c0 0.011 0 0.028 0 0.035v218.688c0 53.875-43.846 97.706-97.727 97.706h-12.262v-115.165l-512.398-4.759v119.924h-12.261c-53.886 0-97.727-43.831-97.727-97.706v-218.688c0-0.007 0-0.024 0-0.035h110.056v52.813c0 28.208 22.945 51.16 51.15 51.16h409.954c28.205 0 51.149-22.952 51.149-51.16v-52.813zM255.799 389.934v438.76c0 23.539 19.161 42.683 42.707 42.683h303.974c17.501 0 39.159-8.972 51.502-21.326l92.865-92.888c12.371-12.372 21.35-34.029 21.35-51.485v-315.744h-512.398zM298.506 828.611l0.059-395.511 426.867-0.1v272.678c0 6.028-4.534 16.954-8.826 21.25l-92.875 92.896c-4.262 4.278-15.184 8.788-21.25 8.788h-303.975zM716.972 24.623h-409.954c-28.205 0-51.15 22.955-51.15 51.167v170.451c0 28.208 22.945 51.16 51.15 51.16h409.954c28.205 0 51.149-22.952 51.149-51.16v-170.451c0-28.212-22.944-51.167-51.149-51.167zM307.018 254.639c-4.628 0-8.387-3.77-8.387-8.397v-170.452c0-4.635 3.759-8.401 8.387-8.401h409.954c4.628 0 8.388 3.767 8.388 8.401v170.451c0 4.628-3.76 8.397-8.388 8.397h-409.954z" />
<glyph unicode="&#xe920;" glyph-name="informacion_adicional" d="M398.782 158.771h226.435v60.046c-15.418 2.86-56.298 13.8-56.298 49.271v289.15h-170.137v-57.195c8.752 0 23.085-1.43 35.127-8.992 10.354-6.521 22.723-19.967 22.723-47.030v-174.374c0-29.76-20.794-47.529-55.609-47.529-0.793 0-1.534 0.008-2.24 0.033v-63.38zM584.716 663.729c0-40.597-32.904-73.5-73.509-73.5-40.569 0-73.491 32.903-73.491 73.5 0 40.587 32.922 73.5 73.491 73.5 40.605 0 73.509-32.914 73.509-73.5zM512.009 24.623c-233.451 0-423.377 189.922-423.377 423.377s189.926 423.377 423.377 423.377c233.441 0 423.359-189.922 423.359-423.377s-189.918-423.377-423.359-423.377zM512.009 827.275c-209.135 0-379.275-170.146-379.275-379.275s170.141-379.275 379.275-379.275c209.121 0 379.257 170.146 379.257 379.275s-170.136 379.275-379.257 379.275z" />
<glyph unicode="&#xe921;" glyph-name="mapa" d="M513.951 701.959c82.512 0 149.643-67.13 149.643-149.635 0-82.538-67.131-149.687-149.643-149.687-82.539 0-149.678 67.148-149.678 149.687 0 82.505 67.139 149.635 149.678 149.635zM513.951 745.209c-106.377 0-192.928-86.534-192.928-192.885 0-106.376 86.551-192.937 192.928-192.937 106.367 0 192.893 86.561 192.893 192.937 0 106.351-86.526 192.885-192.893 192.885v0zM511.848 24.623l-20.367 18.625c-11.115 10.155-272.678 251.468-296.887 484.502-0.33 2.332-0.49 3.921-0.549 5.466-0.643 7.121-1.453 17.528-1.453 28.375 0 170.82 143.205 309.786 319.23 309.786 176.219 0 319.586-138.966 319.586-309.786 0-0.752-0.035-7.729-1.176-20.519-1.875-26.153-6.344-49.763-13.625-71.794-26.439-99.559-97.262-254.076-284.402-425.97l-20.357-18.685zM511.822 828.127c-152.178 0-275.98-119.571-275.98-266.536 0-9.47 0.768-18.914 1.342-25.198l0.389-3.811c19.927-194.084 228.726-405.122 274.341-449.115 173.127 161.79 238.645 305.141 263.057 397.521l0.389 1.317c6.252 18.745 10.104 39.103 11.768 62.248 0.996 11.218 1.031 17.021 1.031 17.080-0.001 146.923-123.966 266.494-276.337 266.494z" />
<glyph unicode="&#xe922;" glyph-name="notificaciones" d="M755.171 295.508c-15.874 0-20.399 15.558-24.091 28.247-4.229 14.505-11.066 39.606-20.35 74.614-24.969 94.28-23.674 183.855-23.605 187.623 0 71.958-41.303 137.416-105.23 166.362-7.426 3.363-12.36 10.588-12.787 18.729-1.68 31.763-26.768 56.647-57.107 56.647s-55.428-24.884-57.107-56.647c-0.428-8.141-5.362-15.366-12.787-18.729-63.928-28.946-105.23-94.404-105.23-166.754 0-0.469-0.018-0.942-0.043-1.411-0.256-3.862-6.343-95.525-24.449-181.715-20.264-96.518-30.162-100.968-38.898-104.89-10.955-4.948-23.904-0.042-28.85 10.959-3.613 8.047-1.959 17.126 3.505 23.353 1.799 3.589 9.163 20.656 21.534 79.55 16.691 79.456 22.974 166.481 23.554 174.908 0.272 84.86 46.759 162.062 119.603 200.261 8.679 48.476 49.99 84.762 99.17 84.762s90.491-36.286 99.17-84.762c73.057-38.311 119.603-115.861 119.603-201.016-0.017-1.249-1.21-87.857 22.156-176.050 16.358-61.741 21.304-78.092 22.685-82.282 1.347-2.698 2.165-5.725 2.285-8.934 0.434-11.116-7.596-20.852-18.594-22.505-1.46-0.218-2.841-0.32-4.137-0.32zM512 24.623c-56.869 0-103.143 47.518-103.143 105.921 0 12.054 9.77 21.824 21.824 21.824s21.824-9.77 21.824-21.824c0-34.338 26.689-62.274 59.494-62.274 32.804 0 59.494 27.936 59.494 62.274 0 12.054 9.77 21.824 21.824 21.824s21.824-9.77 21.824-21.824c0.002-58.403-46.272-105.921-103.141-105.921zM825.092 138.796h-626.184c-12.055 0-21.822 9.77-21.822 21.824v51.626c0 40.54 32.982 73.522 73.518 73.522h264.166c12.055 0 21.824-9.769 21.824-21.823s-9.77-21.824-21.824-21.824h-264.166c-16.471 0-29.871-13.401-29.871-29.875v-29.803h582.535v29.803c0 16.474-13.4 29.875-29.871 29.875-12.055 0-21.824 9.77-21.824 21.824s9.77 21.823 21.824 21.823c40.535 0 73.52-32.982 73.52-73.522v-51.626c-0.001-12.055-9.771-21.824-21.825-21.824zM604.051 743.292c-3.453 0-6.947 0.818-10.213 2.549-23.775 12.612-49.598 19.488-76.74 20.43-29.965 1.032-59.828-5.537-86.382-19.049-10.751-5.468-23.878-1.185-29.351 9.561-5.465 10.741-1.186 23.882 9.555 29.347 33.129 16.849 70.408 25.042 107.695 23.763 33.81-1.176 65.999-9.752 95.682-25.494 10.648-5.647 14.697-18.856 9.055-29.504-3.922-7.388-11.485-11.603-19.301-11.603z" />
<glyph unicode="&#xe923;" glyph-name="nro_corte" d="M794.072 24.623h-564.143c-32.6 0-59.121 26.519-59.121 59.103v511.458c0 26.481 14.14 60.604 32.89 79.371l163.932 163.924c18.69 18.75 52.826 32.898 79.381 32.898h347.061c32.599 0 59.12-26.498 59.12-59.078v-728.573c0-32.584-26.521-59.103-59.12-59.103zM447.011 828.387c-15.038 0-38.376-9.663-48.959-20.286l-163.95-163.933c-10.622-10.64-20.303-33.989-20.303-48.984v-511.458c0-8.882 7.238-16.112 16.13-16.112h564.144c8.745 0 16.129 7.381 16.129 16.112v728.573c0 8.724-7.384 16.088-16.129 16.088h-347.062zM409.419 670.381c0-20.689-16.876-37.6-37.557-37.6h-141.933c-20.681 0-25.652 11.941-11.025 26.584l163.926 163.943c14.65 14.618 26.59 9.646 26.59-11.010v-141.917zM696.252 492.971h-354.691c-11.874 0-21.496 9.622-21.496 21.496s9.622 21.495 21.496 21.495h354.692c11.873 0 21.495-9.622 21.495-21.495s-9.623-21.496-21.496-21.496zM696.252 292.641h-354.691c-11.874 0-21.496 9.621-21.496 21.495s9.622 21.495 21.496 21.495h354.692c11.873 0 21.495-9.622 21.495-21.495s-9.623-21.495-21.496-21.495zM696.252 392.811h-354.691c-11.874 0-21.496 9.622-21.496 21.495s9.622 21.495 21.496 21.495h354.692c11.873 0 21.495-9.621 21.495-21.495s-9.623-21.495-21.496-21.495z" />
<glyph unicode="&#xe924;" glyph-name="nuevo" d="M571.2 162.56v244.8h244.48c22.445 0 40.64 18.195 40.64 40.64s-18.195 40.64-40.64 40.64h-244.48v244.8c0.102 1.084 0.16 2.344 0.16 3.617 0 22.622-18.338 40.96-40.96 40.96s-40.96-18.338-40.96-40.96c0-1.273 0.058-2.533 0.172-3.777l-0.012 0.16v-244.8h-244.8c-22.445 0-40.64-18.195-40.64-40.64s18.195-40.64 40.64-40.64h244.8v-244.8c-0.102-1.084-0.16-2.344-0.16-3.617 0-22.622 18.338-40.96 40.96-40.96s40.96 18.338 40.96 40.96c0 1.273-0.058 2.533-0.172 3.777l0.012-0.16z" />
<glyph unicode="&#xe925;" glyph-name="odt" d="M780.54 24.623h-537.079c-35.525 0-64.426 28.901-64.426 64.425v604.195c0 35.523 28.9 64.425 64.426 64.425h102.915c12.261 0 22.198-9.937 22.198-22.198s-9.937-22.197-22.198-22.197h-102.915c-11.042 0-20.031-8.984-20.031-20.029v-604.195c0-11.045 8.988-20.029 20.031-20.029h537.079c11.043 0 20.030 8.984 20.030 20.029v604.194c0 11.045-8.987 20.029-20.030 20.029h-102.898c-12.261 0-22.198 9.936-22.198 22.197s9.937 22.198 22.198 22.198h102.898c35.526 0 64.425-28.901 64.425-64.425v-604.195c0-35.523-28.9-64.424-64.425-64.424zM595.337 650.58h-166.63c-47.902 0-86.874 38.95-86.874 86.83 0 46.704 37.064 84.917 83.328 86.779 19.059 29.058 51.783 47.188 86.857 47.188 35.082 0 67.794-18.13 86.827-47.188 46.268-1.845 83.341-40.068 83.341-86.779 0-47.88-38.959-86.83-86.849-86.83zM428.707 779.865c-23.424 0-42.479-19.044-42.479-42.455 0-23.401 19.055-42.435 42.479-42.435h166.63c23.407 0 42.453 19.033 42.453 42.435 0 23.411-19.046 42.455-42.453 42.455h-23.572l-6 12.746c-9.825 20.878-30.925 34.37-53.747 34.37-22.827 0-43.94-13.499-53.79-34.388l-6.005-12.729h-23.516zM388.257 500.815c0-12.251-9.937-22.197-22.198-22.197s-22.198 9.946-22.198 22.197c0 12.262 9.938 22.198 22.198 22.198 12.261 0.001 22.198-9.936 22.198-22.198zM388.257 354.076c0-12.252-9.937-22.198-22.198-22.198s-22.198 9.946-22.198 22.198c0 12.255 9.938 22.197 22.198 22.197s22.198-9.942 22.198-22.197zM388.257 214.967c0-12.251-9.937-22.197-22.198-22.197s-22.198 9.946-22.198 22.197c0 12.262 9.938 22.198 22.198 22.198s22.198-9.936 22.198-22.198zM680.139 476.899h-218.040c-12.261 0-22.198 9.939-22.198 22.198 0 12.261 9.937 22.197 22.198 22.197h218.040c12.261 0 22.198-9.937 22.198-22.197-0.001-12.258-9.938-22.198-22.198-22.198zM680.139 331.878h-218.040c-12.261 0-22.198 9.939-22.198 22.198 0 12.262 9.937 22.197 22.198 22.197h218.040c12.261 0 22.198-9.936 22.198-22.197-0.001-12.259-9.938-22.198-22.198-22.198zM680.139 192.77h-218.040c-12.261 0-22.198 9.939-22.198 22.197 0 12.262 9.937 22.198 22.198 22.198h218.040c12.261 0 22.198-9.937 22.198-22.198-0.001-12.258-9.938-22.197-22.198-22.197z" />
<glyph unicode="&#xe926;" glyph-name="orden" d="M552.64 245.76l-121.6-96v402.56c0.001 0.081 0.001 0.176 0.001 0.272 0 17.673-14.327 32-32 32-1.467 0-2.911-0.099-4.326-0.29l0.165 0.018c-0.589 0.037-1.278 0.057-1.971 0.057-18.078 0-32.853-14.143-33.865-31.968l-0.004-0.090v-403.84l-121.6 96c-6.168 4.485-13.894 7.175-22.247 7.175-11.224 0-21.313-4.856-28.283-12.581l-0.030-0.034c-4.617-6.010-7.4-13.639-7.4-21.918 0-10.911 4.833-20.694 12.475-27.324l0.045-0.038 180.48-144.32c5.313-4.815 12.396-7.763 20.168-7.763 0.785 0 1.564 0.030 2.334 0.089l-0.102-0.006c8.413 0.657 16.065 3.432 22.57 7.787l-0.17-0.107 180.16 144.32c8.218 6.799 13.414 17 13.414 28.414 0 8.497-2.88 16.321-7.716 22.55l0.062-0.083c-6.942 7.707-16.955 12.53-28.094 12.53-8.46 0-16.27-2.782-22.565-7.481l0.099 0.071zM832 706.24v0l-180.8 144.64c-5.313 4.815-12.396 7.763-20.168 7.763-0.785 0-1.564-0.030-2.334-0.089l0.102 0.006c-8.413-0.657-16.065-3.432-22.57-7.787l0.17 0.107-180.16-144.32c-8.218-6.799-13.414-17-13.414-28.414 0-8.497 2.88-16.321 7.716-22.55l-0.062 0.083c6.956-7.905 17.095-12.866 28.392-12.866 8.469 0 16.288 2.788 22.587 7.497l-0.099-0.071 121.6 96v-402.56c-0.001-0.081-0.001-0.176-0.001-0.272 0-17.673 14.327-32 32-32 1.467 0 2.911 0.099 4.326 0.29l-0.165-0.018c0.574-0.035 1.245-0.054 1.921-0.054 18.64 0 33.769 15.035 33.919 33.64v402.254l121.6-96c6.168-4.485 13.894-7.175 22.247-7.175 11.224 0 21.313 4.856 28.283 12.581l0.030 0.034c4.617 6.010 7.4 13.639 7.4 21.918 0 10.911-4.833 20.694-12.475 27.324l-0.045 0.038z" />
<glyph unicode="&#xe927;" glyph-name="orden_grilla" d="M776.96 363.84c-5.65 5.114-13.179 8.244-21.44 8.244s-15.79-3.13-21.467-8.269l0.027 0.024-222.080-222.080-222.080 222.080c-5.671 5.202-13.263 8.39-21.6 8.39s-15.929-3.188-21.624-8.411l0.024 0.021c-5.114-5.65-8.244-13.179-8.244-21.44s3.13-15.79 8.269-21.467l-0.024 0.027 243.84-243.84c5.458-5.534 13.039-8.962 21.42-8.962 0.119 0 0.239 0.001 0.358 0.002h-0.018c8.467 0.123 16.119 3.516 21.769 8.969l-0.009-0.009 243.2 242.88c5.114 5.65 8.244 13.179 8.244 21.44s-3.13 15.79-8.269 21.467l0.024-0.027zM247.040 495.68c5.65-5.114 13.179-8.244 21.44-8.244s15.79 3.13 21.467 8.269l-0.027-0.024 222.080 222.080 222.080-222.080c5.671-5.202 13.263-8.39 21.6-8.39s15.929 3.188 21.624 8.411l-0.024-0.021c5.202 5.671 8.39 13.263 8.39 21.6s-3.188 15.929-8.411 21.624l0.021-0.024-243.84 243.52c-5.458 5.533-13.038 8.96-21.419 8.96-0.008 0-0.015 0-0.023 0h0.001c-8.467-0.123-16.119-3.516-21.769-8.969l0.009 0.009-243.2-243.52c-5.202-5.671-8.39-13.263-8.39-21.6s3.188-15.929 8.411-21.624l-0.021 0.024z" />
<glyph unicode="&#xe928;" glyph-name="ordenar_grilla" d="M911.040 429.76h-569.92c-15.729 0-28.48-12.751-28.48-28.48s12.751-28.48 28.48-28.48v0h569.92c15.729 0 28.48 12.751 28.48 28.48s-12.751 28.48-28.48 28.48v0zM189.12 239.68c-36.622-0.182-66.239-29.912-66.239-66.559 0-36.76 29.8-66.56 66.56-66.56s66.56 29.8 66.56 66.56c0 0.112 0 0.224-0.001 0.337v-0.017c-0.181 36.623-29.911 66.241-66.559 66.241-0.113 0-0.225 0-0.338-0.001h0.017zM189.12 143.68c-15.729 0-28.48 12.751-28.48 28.48s12.751 28.48 28.48 28.48v0c15.729 0 28.48-12.751 28.48-28.48s-12.751-28.48-28.48-28.48v0zM189.12 467.84c-36.622-0.182-66.24-29.912-66.24-66.559 0-36.76 29.8-66.56 66.56-66.56s66.56 29.8 66.56 66.559v0c0 0 0 0 0 0.001 0 36.76-29.8 66.56-66.56 66.56-0.112 0-0.225 0-0.337-0.001h0.017zM189.12 371.84c-0.095-0.001-0.206-0.002-0.318-0.002-15.906 0-28.8 12.894-28.8 28.8s12.894 28.8 28.8 28.8c15.906 0 28.8-12.894 28.8-28.8 0-0.112-0.001-0.224-0.002-0.335v0.017c-0.533-15.311-13.072-27.52-28.464-27.52-0.006 0-0.011 0-0.017 0h0.001zM189.12 695.68c-36.622-0.182-66.239-29.912-66.239-66.559 0-36.76 29.8-66.56 66.56-66.56s66.56 29.8 66.56 66.56c0 0.112 0 0.224-0.001 0.337v-0.017c-0.181 36.623-29.911 66.241-66.559 66.241-0.113 0-0.225 0-0.338-0.001h0.017zM189.12 599.68c-15.729 0-28.48 12.751-28.48 28.48s12.751 28.48 28.48 28.48v0c15.729 0 28.48-12.751 28.48-28.48s-12.751-28.48-28.48-28.48v0zM341.12 600.96h571.84c15.287 0.342 27.549 12.816 27.549 28.153 0 0.453-0.011 0.903-0.032 1.35l0.002-0.063c-0.7 15.349-13.314 27.528-28.772 27.528-0.235 0-0.469-0.003-0.703-0.008l0.035 0.001h-571.84c-15.318-0.524-27.537-13.067-27.537-28.464 0-0.343 0.006-0.685 0.018-1.025l-0.001 0.049c0.155-15.257 12.559-27.566 27.839-27.566 0.563 0 1.123 0.017 1.678 0.050l-0.076-0.004zM911.040 201.92h-569.92c-14.988-0.513-27.007-12.532-27.519-27.472l-0.001-0.048c-0.029-0.479-0.046-1.038-0.046-1.601 0-15.279 12.309-27.684 27.551-27.839h569.935c15.729 0 28.48 12.751 28.48 28.48s-12.751 28.48-28.48 28.48v0z" />
<glyph unicode="&#xe929;" glyph-name="programado" d="M225.212 497.566h147.266v-147.266h-147.266v147.266zM653.188 497.566h147.275v-147.266h-147.275v147.266zM439.2 497.566h147.266v-147.266h-147.266v147.266zM225.212 283.578h147.266v-147.266h-147.266v147.266zM439.2 283.578h147.266v-147.266h-147.266v147.266zM905.181 564.13h-786.362c-13.162 0-23.83 10.667-23.83 23.829s10.668 23.829 23.83 23.829h786.362c13.162 0 23.829-10.667 23.829-23.829s-10.667-23.829-23.829-23.829zM716.931 637.032c-21.055 0-38.126 17.071-38.126 38.126v158.092c0 21.056 17.071 38.127 38.126 38.127s38.126-17.071 38.126-38.127v-158.092c0-21.054-17.071-38.126-38.126-38.126zM307.069 637.032c-21.055 0-38.127 17.071-38.127 38.126v158.092c0 21.056 17.072 38.127 38.127 38.127s38.126-17.071 38.126-38.127v-158.092c0.001-21.054-17.071-38.126-38.126-38.126zM811.717 24.623h-599.471c-74.15 0-134.477 59.014-134.477 131.563v490.508c0 72.548 60.327 131.581 134.477 131.581h599.471c74.168 0 134.514-59.033 134.514-131.581v-490.509c0-35.092-14.074-68.137-39.625-93.055-25.468-24.823-59.164-38.507-94.889-38.507zM212.246 730.617c-47.873 0-86.818-37.643-86.818-83.923v-490.509c0-46.262 38.946-83.904 86.818-83.904h599.471c23.224 0 45.108 8.871 61.621 24.975 16.271 15.87 25.235 36.795 25.235 58.93v490.508c0 46.28-38.964 83.923-86.855 83.923h-599.472zM710.387 131.9l-60.541 56.957c-9.587 9.029-10.044 24.109-1.024 33.696 9.020 9.578 24.108 10.025 33.677 1.024l23.625-22.238 63.026 75.835c8.415 10.118 23.448 11.486 33.556 3.091 10.128-8.415 11.505-23.439 3.1-33.566l-95.419-114.799z" />
<glyph unicode="&#xe92c;" glyph-name="servicio_agua" d="M512 24.623c-180.045 0-326.519 132.142-326.519 294.564 0 135.934 129.128 330.821 261.376 518.782 15.018 20.973 39.311 33.408 65.074 33.408 25.79 0 50.023-12.283 64.836-32.856 132.513-188.322 261.75-383.37 261.75-519.334 0.001-162.422-146.472-294.564-326.517-294.564zM511.932 827.841c-11.76 0-22.813-5.633-29.573-15.072-128.134-182.11-253.341-370.365-253.341-493.583 0-138.417 126.942-251.028 282.982-251.028s282.982 112.612 282.982 251.029c0 123.248-125.318 311.663-253.682 494.088-6.512 9.048-17.548 14.566-29.368 14.566zM654.129 182.832c-5 0-10.025 1.713-14.123 5.212-9.141 7.797-10.229 21.525-2.441 30.67v0c0.383 0.442 37.822 44.858 45.594 85.324 7.271 37.8 8.979 62.727 5.23 76.222-3.223 11.581 3.554 23.583 15.135 26.802 11.633 3.214 23.596-3.559 26.802-15.144 5.748-20.675 4.388-50.313-4.413-96.093-9.957-51.865-53.374-103.198-55.219-105.357-4.303-5.043-10.417-7.636-16.565-7.636z" />
<glyph unicode="&#xe92d;" glyph-name="taponamiento_desborde" d="M296.25 647.583c-10.832 0-19.613-8.781-19.613-19.613v-165.145c0-10.832 8.781-19.613 19.613-19.613s19.614 8.781 19.614 19.613v165.145c0 10.832-8.782 19.613-19.614 19.613zM102.26 760.41h-31.623c-23.723 0-43.020-19.299-43.020-43.029v-332.991c0-23.713 19.297-43 43.020-43h31.623c23.723 0 43.020 19.287 43.020 43v332.991c-0.001 23.73-19.298 43.029-43.020 43.029zM106.053 384.39c0-2.078-1.705-3.773-3.793-3.773h-31.623c-2.088 0-3.793 1.695-3.793 3.773v332.991c0 2.097 1.705 3.802 3.793 3.802h31.623c2.088 0 3.793-1.705 3.793-3.802v-332.991zM953.363 760.41h-31.623c-23.723 0-43.020-19.299-43.020-43.029v-332.991c0-23.713 19.297-43 43.020-43h31.623c23.723 0 43.020 19.287 43.020 43v332.991c0 23.73-19.297 43.029-43.020 43.029zM957.156 384.39c0-2.078-1.705-3.773-3.793-3.773h-31.623c-2.088 0-3.793 1.695-3.793 3.773v332.991c0 2.097 1.705 3.802 3.793 3.802h31.623c2.088 0 3.793-1.705 3.793-3.802v-332.991zM512 826.462c-81.355 0-157.292-35.233-209.813-97.015h-141.144v-348.851h134.375c26.752-33.966 60.939-60.819 99.295-78.902-19.313-37.554-31.567-71.821-31.567-99.813 0-72.967 66.79-132.344 148.884-132.344 82.064 0 148.825 59.377 148.825 132.344 0 27.981-12.253 62.251-31.563 99.814 38.354 18.083 72.541 44.936 99.291 78.9h130.889v348.852h-137.659c-52.521 61.782-128.458 97.015-209.813 97.015zM608.363 182.297c-6.551-17.22-16.885-31.183-22.439-38.681l-0.603-0.834c-4.808-6.512-12.229-9.95-19.748-9.95-5.057 0-10.161 1.562-14.538 4.798-10.898 8.035-13.206 23.387-5.171 34.285l0.642 0.862c4.443 6.005 11.875 16.052 16.061 27.026 4.002 10.439 3.524 22.793 3.18 31.814-0.527 13.532 10.018 24.92 23.549 25.446 13.36 0.757 24.93-10.009 25.447-23.55 0.448-11.759 1.215-31.43-6.38-51.216zM820.244 419.825h-111.371l-5.88-8.055c-24.159-33.127-56.321-58.965-92.729-75.657-23.171 39.45-51.907 81.328-80.949 122.603-3.888 5.44-10.371 8.688-17.314 8.688s-13.437-3.305-17.363-8.869c-29.023-41.208-57.734-83.024-80.891-122.426-36.412 16.692-68.578 42.532-92.739 75.662l-5.88 8.055h-114.857v270.394h120.669l5.891 7.432c45.154 56.926 112.652 89.583 185.17 89.583s140.016-32.657 185.17-89.583l5.891-7.432h117.184v-270.395zM694.977 627.97v-165.145c0-10.832 8.783-19.613 19.614-19.613s19.614 8.781 19.614 19.613v165.145c0 10.832-8.783 19.613-19.614 19.613s-19.614-8.781-19.614-19.613z" />
<glyph unicode="&#xe92e;" glyph-name="taponamiento_desborde_lluvia" d="M416.709 350.565c-1.424 1.967-3.778 3.152-6.291 3.152-2.529 0-4.901-1.211-6.324-3.223-24.21-34.383-47.84-69.924-47.84-93.369 0-26.537 24.298-48.138 54.164-48.138 29.85 0 54.129 21.601 54.129 48.138 0 23.446-23.611 59.015-47.838 93.44zM441.321 251.583c-2.196-5.762-5.745-10.541-7.651-13.115-0.904-1.211-2.336-1.889-3.768-1.889-0.914 0-1.828 0.273-2.602 0.853-1.993 1.476-2.494 4.19-1.010 6.185 1.801 2.434 4.867 6.562 6.624 11.182 1.81 4.7 1.599 9.883 1.449 13.309-0.097 2.478 1.827 4.576 4.313 4.682 2.485 0.018 4.576-1.836 4.682-4.313 0.16-3.919 0.432-10.472-2.037-16.894zM771.875 634.509c-1.854 130.929-108.935 236.868-240.277 236.868-94.001 0-178.146-53.9-217.648-138.326-77.645-18.597-132.766-87.676-132.766-168.72 0-95.723 77.881-173.596 173.604-173.596h179.546c-20.050-32.55-34.499-62.792-34.499-85.629 0-41.182 37.693-74.702 84.047-74.702 46.32 0 83.996 33.521 83.996 74.702 0 22.832-14.438 53.071-34.48 85.629h80.66c70.994 0 128.76 57.757 128.76 128.742-0.002 49.070-27.918 93.431-70.943 115.032zM637.010 322.789c0.254-6.245 0.667-16.708-3.285-27.003-3.523-9.241-9.162-16.822-12.193-20.889-1.792-2.416-4.603-3.717-7.423-3.717-1.845 0-3.688 0.554-5.262 1.73-3.987 2.961-4.919 8.46-1.959 12.439 2.724 3.654 7.396 9.926 10.032 16.856 2.635 6.86 2.336 14.38 2.117 19.861-0.201 4.964 3.662 9.153 8.626 9.347 4.998 0.424 9.153-3.652 9.347-8.624zM714.057 435.711h-110.374c-3.328 4.801-6.688 9.602-10.058 14.389-2.189 3.058-5.843 4.901-9.761 4.901s-7.59-1.879-9.812-5.007c-3.346-4.752-6.684-9.518-9.988-14.283h-209.277c-70.924 0-128.629 57.695-128.629 128.62 0 63.149 45.16 116.497 107.389 126.836l12.377 2.056 4.752 11.622c30.166 73.841 101.178 121.557 180.922 121.557 107.703 0 195.328-87.632 195.328-195.345 0-3.392-0.088-6.773-0.264-10.111l-0.869-16.84 15.916-5.56c33.574-11.719 56.133-43.491 56.133-79.068 0-46.188-37.59-83.767-83.785-83.767zM601.1 105.202c-30.473 0-60.938 9.416-91.234 28.268-61.184-37.369-123.041-37.658-184.225-0.809-50.009-38.66-105.227-35.919-160.436 8.213-7.758 6.211-9.021 17.534-2.82 25.291 6.211 7.766 17.516 9.012 25.29 2.819 46.003-36.78 84.399-36.999 124.465-0.72l10.488 9.496 11.7-7.951c55.658-37.824 109.805-37.824 165.515 0l10.206 6.932 10.146-7.020c54.445-37.701 107.362-37.693 161.772-0.008l11.103 7.695 10.48-8.513c45.248-36.753 87.402-36.763 132.668 0 7.697 6.245 19.037 5.095 25.309-2.626 6.264-7.713 5.086-19.045-2.627-25.309-54.726-44.457-112.403-47.127-167.463-8.037-29.999-18.481-60.172-27.721-90.337-27.721zM912.283 24.623h-800.566c-12.421 0-22.488 10.067-22.488 22.488s10.067 22.487 22.488 22.487h800.566c12.42 0 22.488-10.066 22.488-22.487s-10.068-22.488-22.488-22.488z" />
<glyph unicode="&#xe92f;" glyph-name="taponamiento_sin_desborde" d="M296.265 448.709c-10.831 0-19.614 8.781-19.614 19.613v165.142c0 10.831 8.783 19.612 19.614 19.612s19.613-8.781 19.613-19.612v-165.142c0-10.832-8.782-19.613-19.613-19.613zM714.566 448.709c-10.83 0-19.611 8.781-19.611 19.613v165.142c0 10.831 8.781 19.612 19.611 19.612 10.832 0 19.614-8.781 19.614-19.612v-165.142c0.001-10.832-8.782-19.613-19.614-19.613zM102.258 760.395h-31.623c-23.721 0-43.018-19.298-43.018-43.020v-332.984c0-23.711 19.297-42.998 43.018-42.998h31.623c23.723 0 43.020 19.287 43.020 42.998v332.984c-0.001 23.722-19.298 43.020-43.020 43.020zM106.051 384.391c0-2.078-1.705-3.771-3.793-3.771h-31.623c-2.087 0-3.791 1.693-3.791 3.771v332.984c0 2.088 1.704 3.793 3.791 3.793h31.623c2.088 0 3.793-1.705 3.793-3.793v-332.984zM953.363 760.395h-31.631c-23.723 0-43.020-19.298-43.020-43.020v-332.984c0-23.711 19.297-42.998 43.020-42.998h31.631c23.723 0 43.020 19.287 43.020 42.998v332.984c0 23.722-19.297 43.020-43.020 43.020zM957.156 384.391c0-2.078-1.705-3.771-3.793-3.771h-31.631c-2.088 0-3.793 1.693-3.793 3.771v332.984c0 2.088 1.705 3.793 3.793 3.793h31.631c2.088 0 3.793-1.705 3.793-3.793v-332.984zM512 826.455c-81.345 0-157.27-35.233-209.818-97.014h-141.122v-348.841h134.353c9.297-11.798 19.494-22.732 30.447-32.745-9.829-23.705-15.268-49.673-15.268-76.89 0-111.072 90.346-201.42 201.408-201.42s201.409 90.348 201.409 201.42c0 27.193-5.429 53.139-15.241 76.826 10.997 10.086 21.164 21.045 30.42 32.809h130.867v348.841h-137.638c-52.547 61.781-128.472 97.014-209.817 97.014zM626.94 338.672l-144.235-173.512-84.123 79.182c-7.307 6.875-7.662 18.367-0.785 25.664 6.896 7.318 18.378 7.662 25.676 0.785l55.995-52.689 119.536 143.803c6.418 7.701 17.871 8.773 25.58 2.357 7.709-6.418 8.764-17.871 2.356-25.59zM820.229 419.826h-111.35l-5.87-8.055c-7.321-10.032-15.389-19.432-24.131-28.154-36.241 53.509-97.52 88.746-166.878 88.746-69.34 0-130.603-35.218-166.848-88.703-8.716 8.67-16.814 18.047-24.161 28.111l-5.87 8.055h-114.836v270.389h120.64l5.89 7.423c45.183 56.934 112.68 89.591 185.186 89.591s140.003-32.657 185.186-89.591l5.891-7.423h117.152v-270.389z" />
<glyph unicode="&#xe930;" glyph-name="taponamiento_sin_desborde_calle" d="M188.325 132.075c-34.697 0-70.386 14.563-106.827 43.686-8.006 6.398-9.311 18.078-2.914 26.088 6.397 8.002 18.078 9.307 26.084 2.909 58.429-46.703 109.414-46.93 160.444-0.743l10.82 9.796 12.065-8.2c70.979-48.235 140.006-48.217 211.021 0l10.525 7.148 10.466-7.24c69.457-48.098 136.966-48.098 206.396 0l11.449 7.93 10.815-8.781c58.175-47.256 112.364-47.237 170.548 0 7.952 6.443 19.641 5.238 26.106-2.709 6.461-7.956 5.247-19.646-2.709-26.106-67.477-54.796-138.605-57.595-206.458-8.364-75.302-47.301-151.487-47.119-226.807 0.58-76.48-47.537-153.825-47.836-230.268-0.879-29.336-23.408-59.652-35.115-90.756-35.115zM188.325 24.623c-34.697 0-70.386 14.562-106.832 43.694-8.006 6.407-9.306 18.078-2.904 26.089 6.402 8.001 18.078 9.288 26.084 2.909 58.42-46.722 109.409-46.948 160.439-0.744l10.815 9.797 12.070-8.201c70.975-48.217 140.001-48.217 211.021 0l10.525 7.149 10.461-7.24c69.466-48.081 136.97-48.099 206.4 0l11.449 7.929 10.815-8.78c58.175-47.238 112.373-47.238 170.548 0 7.952 6.442 19.641 5.237 26.106-2.71 6.461-7.955 5.247-19.645-2.709-26.105-67.477-54.787-138.61-57.568-206.458-8.364-75.302-47.283-151.487-47.103-226.807 0.578-76.471-47.535-153.825-47.825-230.268-0.878-29.335-23.415-59.651-35.123-90.755-35.123zM761.257 260.849h-130.052c-12.813 0-23.198 10.385-23.198 23.198v153.213h-105.359v-153.213c0-12.813-10.385-23.198-23.198-23.198h-216.707c-12.813 0-23.197 10.385-23.197 23.198v313.938l-51.402 0.027c-10.122 0.008-19.070 6.568-22.11 16.22-3.044 9.659 0.521 20.162 8.813 25.97l323.878 226.975c7.993 5.6 18.635 5.6 26.627 0l323.797-226.975c8.287-5.808 11.853-16.319 8.808-25.97-3.040-9.651-11.988-16.212-22.11-16.22l-51.393-0.027v-313.938c0-12.814-10.384-23.198-23.197-23.198zM654.403 307.245h83.656v313.919c0 12.804 10.375 23.188 23.184 23.198h1.146l-250.353 175.495-250.421-175.495h1.142c12.809-0.010 23.184-10.395 23.184-23.198v-313.919h170.313v153.213c0 12.813 10.384 23.197 23.197 23.197h151.754c12.813 0 23.198-10.385 23.198-23.197v-153.213zM930.917 255.321h-837.834c-12.813 0-23.198 10.385-23.198 23.197 0 12.814 10.385 23.198 23.198 23.198h837.833c12.813 0 23.198-10.384 23.198-23.198 0-12.812-10.385-23.197-23.197-23.197z" />
<glyph unicode="&#xe931;" glyph-name="tipo_afectacion" d="M512.004 564.762c-64.481 0-116.776-52.277-116.776-116.768s52.295-116.768 116.776-116.768 116.759 52.277 116.759 116.768-52.277 116.768-116.759 116.768zM553.731 375.719h-83.455l-41.736 72.275 41.736 72.275h83.455l41.736-72.275-41.736-72.275zM557.582 447.994c0-25.184-20.403-45.594-45.577-45.594s-45.594 20.41-45.594 45.594c0 25.166 20.42 45.576 45.594 45.576s45.577-20.41 45.577-45.576zM511.94 24.623c-194.728 0-370.473 135.432-413.566 333.285-49.664 228.082 95.478 454.047 323.544 503.717 0 0 0 0 0.004 0 228.041 49.701 454.031-95.496 503.704-323.563 49.664-228.074-95.478-454.031-323.544-503.699-30.208-6.58-60.412-9.74-90.142-9.74zM429.428 827.156c-209.063-45.533-342.108-252.672-296.587-461.738 45.534-209.051 252.625-342.104 461.735-296.588 209.059 45.535 342.108 252.664 296.583 461.723-45.534 209.076-252.625 342.086-461.735 296.603h0.004zM511.617 103.607c-62.29 0-123.64 16.967-177.994 49.875-4.25 2.576-7.217 6.82-8.173 11.695-0.952 4.883 0.194 9.932 3.161 13.918 19.606 26.363 69.24 92.766 106.463 139.91 6.042 7.646 17.134 8.947 24.773 2.91 7.648-6.037 8.953-17.121 2.916-24.77-30.828-39.039-70.316-91.508-93.889-123.063 64.171-33.59 137.61-43.58 208.886-28.051 26.221 5.719 51.36 14.693 74.972 26.75l-97.472 121.67c-6.089 7.596-4.862 18.697 2.739 24.787 7.609 6.098 18.71 4.857 24.795-2.74l110.55-137.988c3.187-3.971 4.496-9.137 3.591-14.15-0.904-5.020-3.936-9.404-8.311-12.014-31.922-19.068-66.695-32.787-103.354-40.779-24.446-5.323-49.125-7.96-73.653-7.96zM735.808 192.342c-0.539 0-1.081 0.025-1.628 0.078-5.038 0.465-9.633 3.074-12.617 7.156-6.455 8.846-64.171 87.941-103.418 142.82-5.667 7.924-3.837 18.939 4.087 24.605 7.919 5.658 18.938 3.832 24.61-4.090 29.928-41.848 70.657-97.863 91.060-125.863 66.63 71.191 95.478 167.787 78.558 264.076l-145.752-52.648c-9.172-3.307-19.275 1.438-22.582 10.594-3.312 9.162 1.434 19.273 10.593 22.58l164.842 59.547c4.707 1.723 9.93 1.336 14.357-1.059 4.414-2.377 7.609-6.52 8.785-11.395 0.594-2.473 1.18-4.936 1.727-7.424 25.961-119.266-11.623-240.434-100.529-324.182-3.287-3.090-7.62-4.795-12.093-4.795zM286.125 194.305c-4.521 0-8.888 1.74-12.187 4.885-49.685 47.48-83.7 108.172-98.372 175.529-11.295 51.891-10.619 104.168 2.011 155.404 1.206 4.891 4.448 9.033 8.905 11.385 4.453 2.359 9.71 2.688 14.43 0.904 37.903-14.254 113.512-42.701 164.592-62.199 9.104-3.471 13.664-13.658 10.193-22.762-3.466-9.104-13.65-13.695-22.767-10.189-43.445 16.57-104.654 39.643-145.257 54.914-7.131-39.688-6.348-79.941 2.36-119.947 11.722-53.811 37.193-102.883 74.084-143.053l91.624 125.992c5.736 7.881 16.769 9.619 24.641 3.885 7.88-5.729 9.62-16.76 3.893-24.641l-103.883-142.846c-2.993-4.109-7.618-6.736-12.686-7.191-0.53-0.043-1.055-0.070-1.581-0.070zM639.327 516.213c-7.441 0-14.361 4.754-16.777 12.213-3.001 9.275 2.084 19.215 11.351 22.221 46.615 15.080 111.471 36.18 147.971 48.049-44.849 80.182-124.648 137.127-215.135 153.516l3.131-155.645c0.198-9.74-7.541-17.793-17.281-17.99-0.12 0-0.241 0-0.361 0-9.573 0-17.432 7.664-17.625 17.285l-3.548 176.469c-0.104 5.082 1.994 9.965 5.749 13.385 3.76 3.436 8.815 5.115 13.862 4.494 117.384-13.236 221.732-87.691 272.33-194.305 2.175-4.582 2.274-9.879 0.267-14.537-2.007-4.66-5.921-8.234-10.744-9.803l-18.642-6.063c-36.301-11.807-102.015-33.184-149.112-48.428-1.807-0.576-3.637-0.861-5.436-0.861zM387.369 519.898c-1.83 0-3.69 0.293-5.525 0.896l-168.106 55.395c-4.857 1.604-8.78 5.229-10.752 9.947-1.972 4.721-1.8 10.061 0.474 14.643 46.783 94.332 132.537 161.268 235.271 183.643 12.591 2.738 25.532 4.797 38.468 6.115 5.021 0.457 9.969-1.129 13.672-4.504 3.708-3.377 5.805-8.174 5.762-13.186-0.211-25.605-1.094-113.996-3.552-176.471-0.375-9.49-8.19-16.939-17.613-16.939-0.237 0-0.469 0-0.706 0.018-9.736 0.379-17.315 8.578-16.932 18.318 1.981 50.348 2.933 117.836 3.333 155.041-5.021-0.836-10.008-1.791-14.93-2.859-85.521-18.629-157.935-71.674-201.497-146.834l148.151-48.824c9.25-3.049 14.279-13.021 11.23-22.271-2.443-7.417-9.341-12.128-16.748-12.128z" />
<glyph unicode="&#xe932;" glyph-name="trabajo_realizar" d="M523.263 672.636c54.94 0 99.488 44.47 99.488 99.352s-44.548 99.39-99.488 99.39c-54.784 0-99.292-44.508-99.292-99.39s44.508-99.352 99.292-99.352zM622.907 282.082l-121.272 83.498c3.406 6.302 5.461 13.466 5.461 21.177v207.040c0 12.018-4.698 22.861-12.331 31.004l0.060 0.117-117.418 117.396-0.333-0.273c-7.829 6.459-17.694 10.491-28.615 10.491h-207.079c-25.053 0-45.389-20.316-45.389-45.409l-0.313-62.045-50.047 34.565-14.934-21.491 64.884-44.626-0.078-22.587c0-25.092 20.238-45.408 45.408-45.408 12.879 0 24.446 5.52 32.745 14.21l12.585-8.612-33.117-33c-8.965-8.338-14.718-20.081-14.718-33.352v-207.001c0-0.9-62.731-193.222-62.731-193.222-7.848-23.84 5.070-49.479 28.909-57.426 23.781-7.868 49.441 5.128 57.25 28.928l65.060 196.51c2.25 6.851 2.25 23.605 2.25 25.21v88.274l104.048-104.010v-191.813c0-25.053 20.316-45.33 45.33-45.33 25.113 0 45.449 20.277 45.449 45.408v206.963c0 0.665-0.157 1.175-0.157 1.762 0.431 12.292-3.836 24.622-13.173 33.938l-113.853 113.835 28.537 28.42 91.051-62.672v-5.794c0-25.093 20.278-45.369 45.41-45.369 7.594 0 14.738 2.035 21.1 5.363l125.147-86.198 14.874 21.529zM185.458 583.346c0.47 2.427 0.783 4.972 0.783 7.594l0.333 70.814h110.214l-91.835-91.835-19.495 13.427zM344.037 474.169l72.339 72.263v-122.134l-72.339 49.871zM856.391 24.623h-361.312c-13.3 0-23.977 5.794-29.29 15.894-5.315 10.1-4.032 22.176 3.503 33.156l177.77 257.537c14.346 20.277 43.363 19.983 57.289 0.098l177.829-257.596c7.574-10.941 8.876-23.018 3.581-33.137-5.315-10.138-16.022-15.952-29.37-15.952zM511.823 64.728l327.843-0.021-163.912 237.477-163.931-237.456zM964.001 24.897h-112.014v40.085h89.81l-112.573 163.021-36.708-53.512-33.059 22.665 44.137 64.336c6.186 9.003 15.522 14.151 25.612 14.151 0.010 0 0.010 0 0.019 0 10.1 0 19.426-5.168 25.591-14.151l132.614-192.048c6.634-9.669 7.711-20.864 2.906-29.966-4.805-9.139-14.65-14.581-26.335-14.581z" />
<glyph unicode="&#xe933;" glyph-name="turbiedad" d="M701.396 24.623c-57.195 0-330.774 0-378.819 0-86.026 0-124.036 34.050-140.779 62.623-24.958 42.736-18.676 98.079 18.664 164.494 63.562 113.313 148.539 266.171 164.717 295.275v225.86c-13.33 10.204-21.604 26.281-21.604 43.597 0 30.275 24.629 54.904 54.904 54.904h227.040c30.275 0 54.906-24.629 54.906-54.904 0-17.315-8.275-33.393-21.605-43.597v-225.853c32.777-58.966 108.629-195.309 164.746-295.309 37.32-66.424 43.59-121.749 18.623-164.443-16.718-28.572-54.71-62.647-140.793-62.647zM701.396 67.765c36.225 0 83.596 7.162 103.549 41.288 16.684 28.521 10.289 69.414-19 121.537-57.762 102.95-136.418 244.348-167.553 300.356l-2.713 4.888v264.486l14.055 5.224c4.582 1.711 7.549 5.999 7.549 10.929 0 6.488-5.275 11.763-11.764 11.763h-227.040c-6.488 0-11.763-5.274-11.763-11.763 0-4.93 2.966-9.218 7.549-10.929l14.056-5.224v-264.479l-2.713-4.887c-0.965-1.736-97.295-175.128-167.532-300.332-29.306-52.14-35.709-93.049-19.043-121.596 19.987-34.101 67.341-41.263 103.544-41.263 47.932 0.002 321.759 0.002 378.819 0.002zM618.131 400.595h-212.245c-34.782-62.353-74.453-132.829-108.047-193.294-34.75-62.572-18.015-74.133 30.958-74.133 44.826 0 321.556 0 366.384 0 48.971 0 65.74 11.561 30.982 74.133-33.597 60.465-73.292 130.941-108.032 193.294zM465.804 247.526c-29.289 0-53 23.787-53 53.102 0 29.272 23.711 53.034 53 53.034s53.034-23.762 53.034-53.034c0-29.315-23.745-53.102-53.034-53.102zM583.945 187.971c-16.404 0-29.744 13.381-29.744 29.795 0 16.447 13.34 29.761 29.744 29.761 16.475 0 29.805-13.313 29.805-29.761 0-16.414-13.33-29.795-29.805-29.795zM534.484 462.156c25.455 0 46.117 20.644 46.117 46.158 0 25.48-20.662 46.124-46.117 46.124s-46.116-20.644-46.116-46.124c0.001-25.514 20.661-46.158 46.116-46.158z" />
<glyph unicode="&#xe934;" glyph-name="buscar" d="M663.73 326.626c14.882-13.581 53.549-17.708 77.641-8.642 33.846-35.39 62.994-67.175 103.576-107.847 29.908-29.836 93.643-68.205 90.607-120.787-1.932-33.313-33.194-66.109-73.359-64.683-43.020 1.517-82.5 56.61-116.471 90.563-38.668 38.676-71.41 77.821-103.521 103.548 9.986 26.206 3.305 64.259-8.65 81.966zM425.173 197.729c-185.731 0-336.833 151.102-336.833 336.824s151.101 336.823 336.833 336.823c185.728 0 336.823-151.102 336.823-336.823s-151.096-336.824-336.823-336.824zM425.173 825.143c-160.234 0-290.598-130.358-290.598-290.589s130.364-290.59 290.598-290.59c160.23 0 290.589 130.359 290.589 290.59s-130.359 290.589-290.589 290.589zM574.865 490.514c-12.769 0-23.117 10.349-23.117 23.117 0 82.545-67.152 149.692-149.692 149.692-12.769 0-23.116 10.349-23.116 23.117s10.348 23.116 23.116 23.116c108.037 0 195.927-87.89 195.927-195.926-0.001-12.768-10.349-23.116-23.118-23.116z" />
<glyph unicode="&#xe936;" glyph-name="usuario" d="M512.039 402.088c-129.401 0-234.673 105.263-234.673 234.651 0 129.379 105.271 234.638 234.673 234.638 129.365 0 234.611-105.259 234.611-234.638 0-129.388-105.246-234.651-234.611-234.651zM512.039 826.753c-104.793 0-190.049-85.239-190.049-190.014 0-104.779 85.256-190.027 190.049-190.027 104.757 0 189.987 85.248 189.987 190.027 0 104.775-85.23 190.014-189.987 190.014zM912.273 24.623c-12.324 0-22.312 9.988-22.312 22.312v25.729c0 147.229-177.8 200.974-283.781 219.904-0.51 0.092-46.916 8.367-94.182 8.367-47.265 0-93.697-8.275-94.163-8.358-106.017-18.943-283.798-72.684-283.798-219.913v-25.729c0-12.324-9.988-22.312-22.313-22.312s-22.312 9.988-22.312 22.312v25.729c0 133.209 113.834 226.907 320.534 263.831 1.996 0.362 50.655 9.064 102.051 9.064s100.034-8.703 102.082-9.073c206.661-36.915 320.505-130.612 320.505-263.822v-25.729c0.002-12.324-9.986-22.312-22.311-22.312z" />
<glyph unicode="&#xe937;" glyph-name="mas_horas" d="M693.219 662.961c-6.359 0-12.781 1.937-18.332 5.95-13.977 10.14-17.092 29.693-6.963 43.68l51.359 70.843c10.139 13.969 29.691 17.084 43.68 6.963 13.979-10.14 17.092-29.693 6.963-43.68l-51.359-70.843c-6.116-8.437-15.663-12.913-25.348-12.913zM602.449 808.833h-180.896c-17.268 0-31.273 14.005-31.273 31.272s14.006 31.271 31.273 31.271h180.896c17.268 0 31.271-14.004 31.271-31.271s-14.003-31.272-31.271-31.272zM511.992 707.355c-17.268 0-31.273 14.005-31.273 31.272v101.478c0 17.268 14.006 31.271 31.273 31.271s31.271-14.004 31.271-31.271v-101.478c0.001-17.267-14.003-31.272-31.271-31.272zM512.010 24.623c-199.953 0-362.623 162.669-362.623 362.613s162.67 362.612 362.623 362.612c199.943 0 362.604-162.669 362.604-362.612s-162.661-362.613-362.604-362.613zM512.010 705.175c-175.322 0-317.947-142.627-317.947-317.938 0-175.313 142.625-317.939 317.947-317.939 175.303 0 317.93 142.627 317.93 317.939s-142.627 317.938-317.93 317.938zM512 357.203c-17.268 0-31.271 14.004-31.271 31.271v178.699c0 17.268 14.004 31.271 31.271 31.271s31.273-14.004 31.273-31.271v-178.698c0-17.268-14.005-31.272-31.273-31.272z" />
<glyph unicode="&#xe938;" glyph-name="plazo_no_cumplido" d="M369.873 132.767c-9.76 0-19.516 3.723-26.957 11.165-14.894 14.889-14.894 39.029-0.005 53.918l285.931 285.95c14.894 14.893 39.035 14.889 53.919 0.005 14.893-14.889 14.893-39.030 0.005-53.919l-285.932-285.949c-7.447-7.448-17.201-11.17-26.961-11.17zM655.804 132.767c-9.76 0-19.515 3.723-26.962 11.17l-285.931 285.949c-14.889 14.889-14.889 39.030 0.005 53.919 14.893 14.884 39.034 14.879 53.918-0.005l285.932-285.95c14.888-14.889 14.888-39.029-0.005-53.918-7.443-7.443-17.202-11.165-26.957-11.165zM905.182 564.13h-786.363c-13.162 0-23.829 10.667-23.829 23.829s10.667 23.829 23.829 23.829h786.362c13.162 0 23.829-10.667 23.829-23.829s-10.666-23.829-23.828-23.829zM716.932 637.032c-21.056 0-38.127 17.071-38.127 38.127v158.091c0 21.056 17.071 38.127 38.127 38.127s38.126-17.071 38.126-38.127v-158.091c0-21.055-17.072-38.127-38.126-38.127zM307.069 637.032c-21.055 0-38.126 17.071-38.126 38.127v158.091c0 21.056 17.071 38.127 38.126 38.127 21.056 0 38.127-17.071 38.127-38.127v-158.091c0-21.055-17.071-38.127-38.127-38.127zM811.717 24.623h-599.471c-74.149 0-134.477 59.019-134.477 131.563v490.508c0 72.553 60.327 131.581 134.477 131.581h599.471c74.173 0 134.514-59.028 134.514-131.581v-490.509c0-35.092-14.074-68.141-39.625-93.055-25.463-24.828-59.164-38.507-94.889-38.507zM212.246 730.617c-47.872 0-86.818-37.646-86.818-83.923v-490.509c0-46.267 38.946-83.904 86.818-83.904h599.471c23.22 0 45.104 8.871 61.616 24.974 16.275 15.866 25.239 36.796 25.239 58.931v490.508c0 46.276-38.964 83.923-86.855 83.923h-599.471z" />
<glyph unicode="&#xe939;" glyph-name="eliminar" d="M902.912 727.751h-781.822c-12.398 0-22.443 10.046-22.443 22.441s10.045 22.442 22.443 22.442h781.822c12.395 0 22.441-10.046 22.441-22.442s-10.046-22.441-22.441-22.441zM710.947 24.623h-397.896c-68.705 0-124.602 62.735-124.602 139.848v560.401c0 9.726 0.955 19.662 2.844 29.538l3.484 18.225h634.445l3.484-18.225c1.889-9.875 2.846-19.812 2.846-29.538v-560.401c0.001-77.113-55.898-139.848-124.605-139.848zM233.369 727.751c-0.025-0.964-0.037-1.924-0.037-2.879v-560.401c0-52.365 35.76-94.965 79.719-94.965h397.896c43.961 0 79.721 42.6 79.721 94.965v560.401c0 0.955-0.012 1.915-0.039 2.879h-557.26zM644.404 727.751h-264.81c-6.652 0-12.963 2.954-17.23 8.062-4.262 5.11-6.039 11.847-4.846 18.395l17.953 98.743c1.936 10.669 11.232 18.427 22.076 18.427h228.904c10.844 0 20.141-7.758 22.078-18.427l17.953-98.743c1.191-6.548-0.582-13.285-4.848-18.395-4.263-5.108-10.577-8.062-17.23-8.062zM406.484 772.634h211.029l-9.791 53.86h-191.445l-9.793-53.86zM512 168.424c-17.354 0-31.418 14.065-31.418 31.418v434.111c0 17.353 14.064 31.418 31.418 31.418 17.352 0 31.416-14.065 31.416-31.418v-434.111c0-17.353-14.064-31.418-31.416-31.418zM358.896 168.424c-17.352 0-31.416 14.065-31.416 31.418v434.111c0 17.353 14.064 31.418 31.416 31.418 17.355 0 31.42-14.065 31.42-31.418v-434.111c0-17.353-14.064-31.418-31.42-31.418zM665.102 168.424c-17.352 0-31.42 14.065-31.42 31.418v434.111c0 17.353 14.068 31.418 31.42 31.418s31.418-14.065 31.418-31.418v-434.111c0-17.353-14.067-31.418-31.418-31.418z" />
<glyph unicode="&#xe93a;" glyph-name="editar" d="M114.92 24.623c-6.947 0-13.707 2.739-18.731 7.768-6.464 6.481-9.125 15.841-7.028 24.756l45.047 191.419c1.127 4.791 3.566 9.168 7.049 12.646l602.442 602.414c10.327 10.336 27.094 10.331 37.42 0.005l146.674-146.662c4.965-4.967 7.751-11.696 7.751-18.714s-2.786-13.748-7.751-18.708l-602.457-602.425c-3.489-3.494-7.887-5.938-12.693-7.060l-191.707-44.746c-1.998-0.465-4.018-0.693-6.016-0.693zM183.998 229.112l-33.547-142.564 142.807 33.334 456.273 456.252-109.252 109.24-456.281-456.262zM677.702 722.793l109.251-109.24 84.707 84.702-109.251 109.24-84.707-84.702zM311.621 97.83l-146.674 146.663 37.418 37.428 146.672-146.663z" />
<glyph unicode="&#xe93b;" glyph-name="gestion_monitoreo" d="M461.343 766.674c-82.345 0-149.097-66.75-149.097-149.105 0-82.346 66.751-149.105 149.097-149.105s149.116 66.76 149.116 149.105c0 82.355-66.77 149.105-149.116 149.105zM472.332 669.342c-34.033 0-61.715-27.682-61.715-61.715 0-11.279-9.144-20.422-20.421-20.422-11.278 0-20.422 9.143-20.422 20.422 0 56.549 46.009 102.559 102.558 102.559 11.278 0 20.422-9.145 20.422-20.422 0-11.28-9.144-20.422-20.422-20.422zM363.042 53.033c-5.364 0-10.579 2.113-14.458 5.992-4.986 5.006-7.041 12.227-5.425 19.105l34.771 147.73c0.877 3.699 2.762 7.080 5.445 9.762l464.947 464.93c7.979 7.977 20.902 7.977 28.879 0l113.197-113.189c3.83-3.828 5.984-9.023 5.984-14.438 0-5.416-2.154-10.611-5.984-14.439l-464.957-464.937c-2.693-2.693-6.084-4.588-9.803-5.445l-147.958-34.532c-1.535-0.359-3.092-0.539-4.638-0.539zM416.361 210.854l-25.896-110.025 110.217 25.727 352.138 352.118-84.311 84.311-352.148-352.131zM797.389 591.861l84.32-84.311 65.373 65.375-84.32 84.311-65.373-65.375zM430.493 251.63l113.192-113.192-28.878-28.878-113.192 113.192 28.878 28.878zM539.92 392.17l54.715 54.703c-39.35-12.135-82.387-19.713-128.744-19.713-202.385 0-350.913 144.020-391.119 187.496 37.513 43.975 176.449 187.467 391.077 187.467 164.225 0 279.775-84.539 340.482-143.561l29.297 29.285c-65.373 64.338-189.541 155.119-369.779 155.119-272.715 0-427.833-207.998-434.304-216.854-5.455-7.469-5.205-17.689 0.607-24.889 7.101-8.775 176.728-214.908 433.738-214.908 25.697 0.001 50.356 2.134 74.030 5.855z" />
<glyph unicode="&#xe93c;" glyph-name="usuarios_sensibles" d="M504.676 402.508c-129.28 0-234.457 105.169-234.457 234.441 0 129.263 105.177 234.428 234.457 234.428 129.251 0 234.407-105.165 234.407-234.428 0-129.272-105.156-234.441-234.407-234.441zM504.676 826.793c-104.698 0-189.873-85.163-189.873-189.844 0-104.686 85.175-189.856 189.873-189.856 104.669 0 189.823 85.171 189.823 189.856 0.001 104.681-85.154 189.844-189.823 189.844zM104.726 25.381c-12.313 0-22.292 9.979-22.292 22.292v25.705c0 133.091 113.733 226.705 320.248 263.595 1.994 0.361 50.61 9.056 101.96 9.056s99.944-8.695 101.99-9.064c77.892-13.916 143.405-36.272 194.655-66.442 10.611-6.244 14.15-19.905 7.903-30.516-6.24-10.605-19.898-14.163-30.518-7.903-46.677 27.474-107.215 47.99-179.934 60.982-0.509 0.091-46.874 8.359-94.097 8.359-47.388 0-93.609-8.269-94.070-8.351-105.932-18.927-283.554-72.619-283.554-219.716v-25.705c0.001-12.313-9.978-22.292-22.291-22.292zM768.102 24.623l-98.643 92.821c-8.963 8.438-9.391 22.549-0.957 31.515 8.438 8.96 22.535 9.395 31.514 0.958l64.107-60.332 138.010 166.045c7.864 9.46 21.913 10.762 31.391 2.89 9.465-7.867 10.764-21.921 2.892-31.391l-168.314-202.506z" />
<glyph unicode="&#xe93e;" glyph-name="reportes" d="M781.186 24.623h-538.373c-35.045 0-63.557 28.52-63.557 63.574v605.629c0 35.054 28.512 63.573 63.557 63.573h103.163c11.726 0 21.23-9.504 21.23-21.229 0-11.727-9.505-21.23-21.23-21.23h-103.163c-11.635 0-21.097-9.471-21.097-21.113v-605.629c0-11.645 9.462-21.115 21.097-21.115h538.373c11.637 0 21.098 9.471 21.098 21.115v605.628c0 11.643-9.461 21.113-21.098 21.113h-103.146c-11.726 0-21.229 9.504-21.229 21.23s9.504 21.229 21.229 21.229h103.146c35.047 0 63.559-28.52 63.559-63.573v-605.629c-0.001-35.053-28.513-63.573-63.559-63.573zM595.534 652.097h-167.027c-47.452 0-86.064 38.587-86.064 86.014 0 46.448 37.004 84.422 83.079 85.997 18.874 29.092 51.507 47.27 86.495 47.27 34.987 0 67.611-18.178 86.47-47.27 46.084-1.559 83.087-39.541 83.087-85.997-0.001-47.427-38.596-86.014-86.040-86.014zM428.507 781.697c-24.042 0-43.604-19.555-43.604-43.587 0-24.017 19.563-43.555 43.604-43.555h167.027c24.032 0 43.579 19.538 43.579 43.555 0 24.032-19.547 43.587-43.579 43.587h-22.971l-5.739 12.183c-10.026 21.288-31.539 35.038-54.808 35.038s-44.8-13.759-54.849-35.055l-5.739-12.166h-22.921zM621.283 297.028h-218.567c-11.727 0-21.23 9.503-21.23 21.229s9.504 21.23 21.23 21.23h218.567c11.727 0 21.23-9.504 21.23-21.23s-9.503-21.229-21.23-21.229zM621.283 193.186h-218.567c-11.727 0-21.23 9.503-21.23 21.229s9.504 21.229 21.23 21.229h218.567c11.727 0 21.23-9.503 21.23-21.229s-9.503-21.229-21.23-21.229zM488.63 416.711l-73.707 69.362c-8.542 8.027-8.948 21.471-0.912 30.004 8.036 8.558 21.479 8.956 30.003 0.912l40.835-38.413 93.353 112.319c7.515 9.014 20.899 10.233 29.896 2.762 9.021-7.497 10.251-20.882 2.762-29.896l-122.23-147.050z" />
<glyph unicode="&#xe93f;" glyph-name="seguridad" d="M726.103 505.901h-3.598v153.084c0 117.117-95.279 212.392-212.393 212.392-117.109 0-212.384-95.274-212.384-212.392v-153.089c-43.644-0.092-79.12-35.613-79.12-79.275v-322.718c0-43.719 35.567-79.28 79.289-79.28h428.205c43.722 0 79.289 35.562 79.289 79.28v322.718c0.001 43.719-35.567 79.28-79.288 79.28zM510.112 819.603c88.564 0 160.617-72.051 160.617-160.617v-153.084h-321.225v153.083c0 88.567 72.048 160.618 160.608 160.618zM753.616 103.903c0-15.168-12.343-27.506-27.514-27.506h-428.205c-15.171 0-27.515 12.338-27.515 27.506v322.718c0 15.169 12.344 27.504 27.515 27.504h428.205c15.171 0 27.514-12.335 27.514-27.504v-322.718zM576.728 307.868c0 37.483-30.38 67.871-67.862 67.871-37.491 0-67.87-30.388-67.87-67.871 0-27.617 16.501-51.365 40.179-61.962v-73.862c0-16.678 13.521-30.202 30.202-30.202s30.202 13.524 30.202 30.202v76.355c20.951 11.553 35.149 33.85 35.149 59.469z" />
<glyph unicode="&#xe940;" glyph-name="configuracion" d="M566.671 826.812v-102.302c37.177-7.303 71.863-21.864 102.284-42.286l72.271 72.299 77.313-77.295-72.289-72.298c20.421-30.396 34.966-65.073 42.338-102.31h102.24v-109.274h-102.24c-7.372-37.271-21.917-71.889-42.338-102.293l72.289-72.351-77.313-77.251-72.324 72.255c-30.368-20.351-65.055-34.956-102.231-42.26v-102.258h-109.344v102.258c-37.202 7.304-71.862 21.909-102.257 42.33l-72.352-72.325-77.286 77.286 72.343 72.351c-20.403 30.404-34.966 64.986-42.338 102.258h-102.267v109.274h102.268c7.372 37.236 21.935 71.914 42.338 102.31l-72.343 72.298 77.286 77.295 72.352-72.299c30.395 20.422 65.055 34.983 102.257 42.286v102.302h109.343zM512 292.020c86.102 0 155.963 69.86 155.963 155.963 0 86.138-69.861 155.998-155.963 155.998-86.207 0-155.947-69.86-155.947-155.998 0-86.103 69.74-155.963 155.947-155.963zM566.671 871.378h-109.344c-24.614 0-44.565-19.949-44.565-44.566v-67.764c-17.461-5.534-34.356-12.516-50.599-20.906l-47.944 47.907c-8.705 8.688-20.106 13.040-31.5 13.040-11.41 0-22.813-4.352-31.518-13.057l-77.277-77.295c-8.364-8.364-13.057-19.697-13.057-31.525 0-11.821 4.701-23.154 13.065-31.511l47.925-47.899c-8.381-16.233-15.371-33.139-20.924-50.616h-67.763c-24.615 0-44.566-19.949-44.566-44.565v-109.274c0-24.616 19.951-44.565 44.566-44.565h67.764c5.553-17.462 12.543-34.349 20.934-50.581l-47.943-47.953c-17.408-17.398-17.408-45.619 0-63.019l77.277-77.286c8.704-8.704 20.115-13.057 31.518-13.057s22.806 4.344 31.51 13.048l47.935 47.927c16.251-8.408 33.146-15.407 50.599-20.942v-67.729c0-24.616 19.951-44.566 44.565-44.566h109.344c24.616 0 44.566 19.95 44.566 44.566v67.729c17.435 5.526 34.321 12.507 50.556 20.898l47.934-47.892c8.705-8.695 20.107-13.039 31.5-13.039 11.402 0 22.797 4.344 31.502 13.039l77.313 77.251c17.408 17.401 17.424 45.611 0.025 63.028l-47.908 47.952c8.391 16.233 15.389 33.146 20.934 50.625h67.736c24.615 0 44.566 19.949 44.566 44.565v109.274c0 24.616-19.951 44.565-44.566 44.565h-67.736c-5.554 17.496-12.534 34.399-20.924 50.633l47.89 47.892c8.356 8.365 13.048 19.697 13.048 31.518s-4.7 23.154-13.057 31.51l-77.313 77.295c-8.355 8.356-19.688 13.057-31.51 13.057 0 0 0 0-0.007 0-11.821-0.009-23.155-4.7-31.511-13.057l-47.873-47.891c-16.242 8.391-33.138 15.372-50.599 20.906v67.764c-0.002 24.617-19.952 44.566-44.568 44.566v0zM512 336.585c-61.418 0-111.381 49.971-111.381 111.397 0 61.443 49.963 111.432 111.381 111.432 61.426 0 111.396-49.988 111.396-111.432 0-61.426-49.97-111.397-111.396-111.397v0z" />
<glyph unicode="&#xe941;" glyph-name="informacion_sistema" d="M398.782 158.771h226.435v60.046c-15.418 2.86-56.298 13.8-56.298 49.271v289.15h-170.137v-57.195c8.752 0 23.085-1.43 35.127-8.992 10.354-6.521 22.723-19.967 22.723-47.030v-174.374c0-29.76-20.794-47.529-55.609-47.529-0.793 0-1.534 0.008-2.24 0.033v-63.38zM584.716 663.729c0-40.597-32.904-73.5-73.509-73.5-40.569 0-73.491 32.903-73.491 73.5 0 40.587 32.922 73.5 73.491 73.5 40.605 0 73.509-32.914 73.509-73.5zM512.009 24.623c-233.451 0-423.377 189.922-423.377 423.377s189.926 423.377 423.377 423.377c233.441 0 423.359-189.922 423.359-423.377s-189.918-423.377-423.359-423.377zM512.009 827.275c-209.135 0-379.275-170.146-379.275-379.275s170.141-379.275 379.275-379.275c209.121 0 379.257 170.146 379.257 379.275s-170.136 379.275-379.257 379.275z" />
<glyph unicode="&#xe942;" glyph-name="favorito_activado" d="M249.815 24.636c-4.127 0-8.224 1.281-11.696 3.793-6.125 4.455-9.185 11.991-7.912 19.463l48.296 281.649-204.618 199.473c-5.428 5.282-7.375 13.194-5.038 20.395 2.345 7.199 8.565 12.444 16.057 13.532l282.788 41.075 126.471 256.267c3.354 6.787 10.27 11.084 17.836 11.084 7.569 0 14.484-4.297 17.838-11.084l126.472-256.268 282.788-41.075c7.491-1.088 13.713-6.333 16.058-13.532 2.336-7.2 0.387-15.112-5.039-20.395l-204.619-199.472 48.308-281.649c1.276-7.472-1.787-15.008-7.912-19.463-6.131-4.441-14.244-5.037-20.953-1.515l-252.94 132.989-252.928-132.989c-2.914-1.529-6.093-2.278-9.257-2.278z" />
<glyph unicode="&#xe943;" glyph-name="salir" d="M529.328 84.94h-343.532c-5.981 0-10.85 4.859-10.85 10.935v704.27c0 6.074 4.869 10.933 10.85 10.933h337.962c15.375-2.911 30.516 6.522 34.683 21.798 4.261 16.099-5.19 32.678-21.292 36.93l-5.775 1.572h-345.578c-39.234 0-71.179-31.909-71.179-71.232v-704.27c0-39.27 31.945-71.252 71.179-71.252h343.532c16.629 0 30.051 13.507 30.051 30.142 0 16.632-13.422 30.174-30.051 30.174zM599.051 758.373c-11.814 11.792-30.922 11.792-42.651 0-11.899-11.791-11.899-30.873 0-42.646l237.523-237.586h-500.832c-16.629 0-30.163-13.471-30.163-30.141 0-16.65 13.534-30.123 30.163-30.123h500.832l-237.523-237.602c-11.899-11.756-11.899-30.82 0-42.631 5.838-5.895 13.596-8.808 21.296-8.808 7.643 0 15.463 2.913 21.354 8.808l310.333 310.356-310.332 310.373z" />
<glyph unicode="&#xe944;" glyph-name="ayuda" d="M512.009 24.623c-233.451 0-423.377 189.922-423.377 423.377s189.926 423.377 423.377 423.377c233.441 0 423.359-189.922 423.359-423.377s-189.918-423.377-423.359-423.377zM512.009 827.275c-209.135 0-379.275-170.146-379.275-379.275s170.141-379.275 379.275-379.275c209.121 0 379.257 170.146 379.257 379.275s-170.136 379.275-379.257 379.275zM336.568 566.944c0 22.201 7.12 44.721 21.374 67.519 14.285 22.846 35.094 41.72 62.456 56.703 27.387 14.936 59.301 22.431 95.811 22.431 33.892 0 63.859-6.252 89.811-18.776 25.977-12.518 46.006-29.51 60.151-51.028 14.212-21.533 21.261-44.921 21.261-70.18 0-19.88-4.038-37.323-12.102-52.265-8.085-14.989-17.689-27.911-28.785-38.783-11.101-10.877-31.059-29.195-59.802-54.917-7.982-7.267-14.35-13.614-19.145-19.145-4.793-5.487-8.363-10.503-10.695-15.074-2.315-4.571-4.148-9.14-5.458-13.657-1.254-4.575-3.22-12.614-5.8-24.059-4.407-24.33-18.349-36.473-41.737-36.473-12.149 0-22.358 3.967-30.727 11.921-8.268 7.94-12.421 19.747-12.421 35.453 0 19.639 3.021 36.638 9.116 51.029 6.072 14.387 14.17 27.025 24.216 37.915 10.052 10.871 23.617 23.781 40.675 38.746 14.989 13.12 25.824 22.984 32.465 29.647 6.675 6.675 12.271 14.116 16.871 22.285 4.557 8.184 6.819 17.046 6.819 26.651 0 18.728-6.972 34.526-20.852 47.351-13.959 12.904-31.896 19.326-53.862 19.326-25.753 0-44.698-6.471-56.836-19.464-12.186-12.994-22.509-32.104-30.89-57.385-7.972-26.428-23.021-39.633-45.275-39.633-13.116 0-24.138 4.618-33.14 13.844-9.049 9.232-13.499 19.237-13.499 30.018zM507.791 182.403c-14.295 0-26.729 4.607-37.384 13.839-10.648 9.226-15.979 22.159-15.979 38.795 0 14.706 5.168 27.134 15.448 37.19 10.257 10.046 22.931 15.067 37.914 15.067 14.714 0 27.115-5.021 37.19-15.067 10.052-10.057 15.063-22.484 15.063-37.19 0-16.407-5.234-29.27-15.768-38.615-10.532-9.369-22.707-14.019-36.484-14.019z" />
<glyph unicode="&#xe945;" glyph-name="bitacora" d="M779.59 758.093h-99.21c-9.346 36.741-41.858 64.334-81.007 66.24-19.307 28.988-52.15 47.044-87.356 47.044-35.2 0-68.056-18.058-87.381-47.046-39.146-1.921-71.651-29.508-80.998-66.238h-99.226c-36.228 0-65.702-29.481-65.702-65.718v-602.050c0-36.228 29.475-65.702 65.702-65.702h535.178c36.227 0 65.7 29.475 65.7 65.702v602.050c0 36.236-29.474 65.718-65.7 65.718zM429.003 777.187h24.385l6.389 13.547c9.568 20.285 30.074 33.392 52.24 33.392 22.164 0 42.653-13.102 52.198-33.376l6.386-13.563h24.438c22.496 0 40.798-18.299 40.798-40.79s-18.302-40.791-40.798-40.791h-166.036c-22.511 0-40.823 18.299-40.823 40.791s18.312 40.79 40.823 40.79zM798.038 90.325c0-10.174-8.276-18.45-18.448-18.45h-535.178c-10.174 0-18.45 8.276-18.45 18.45v602.050c0 10.182 8.276 18.466 18.45 18.466h100.304c10.981-36.123 44.61-62.487 84.287-62.487h166.036c39.665 0 73.283 26.364 84.262 62.487h100.289c10.172 0 18.448-8.284 18.448-18.466v-602.050zM697.358 522.556h-217.27c-13.048 0-23.626-10.578-23.626-23.626s10.578-23.626 23.626-23.626h217.27c13.049 0 23.626 10.578 23.626 23.626s-10.577 23.626-23.626 23.626zM420.932 569.826c-10.035 8.34-24.931 6.965-33.271-3.068l-35.65-42.897-9.176 8.638c-9.502 8.941-24.454 8.489-33.397-1.012s-8.49-24.454 1.011-33.397l45.776-43.085 67.776 81.551c8.34 10.034 6.966 24.929-3.069 33.27zM697.358 378.044h-217.27c-13.048 0-23.626-10.578-23.626-23.626s10.578-23.626 23.626-23.626h217.27c13.049 0 23.626 10.578 23.626 23.626s-10.577 23.626-23.626 23.626zM420.932 425.314c-10.036 8.341-24.932 6.965-33.271-3.068l-35.65-42.896-9.177 8.637c-9.502 8.943-24.454 8.488-33.396-1.013s-8.49-24.453 1.012-33.396l45.775-43.084 67.776 81.55c8.34 10.035 6.966 24.931-3.069 33.27zM697.358 239.436h-217.27c-13.048 0-23.626-10.578-23.626-23.626s10.578-23.626 23.626-23.626h217.27c13.049 0 23.626 10.578 23.626 23.626s-10.577 23.626-23.626 23.626zM420.932 286.706c-10.036 8.341-24.932 6.966-33.271-3.069l-35.65-42.896-9.177 8.637c-9.502 8.942-24.454 8.488-33.396-1.013s-8.49-24.454 1.012-33.396l45.775-43.084 67.776 81.55c8.34 10.036 6.966 24.93-3.069 33.271z" />
<glyph unicode="&#xe946;" glyph-name="calles" d="M603.666 664.63h-183.33v114.705c0 50.545 41.119 91.665 91.664 91.665s91.666-41.12 91.666-91.665v-114.705zM476.27 720.564h71.461v58.771c0 19.702-16.029 35.73-35.73 35.73s-35.73-16.028-35.73-35.73v-58.771zM603.666 403.79h-183.33v173.454h183.33v-173.454zM476.27 459.724h71.461v61.586h-71.461v-61.586zM603.666 25h-183.33v291.403h183.33v-291.403zM476.27 80.935h71.461v179.535h-71.461v-179.535zM532.506 620.936c0-11.325-9.18-20.506-20.506-20.506s-20.508 9.181-20.508 20.506c0 11.328 9.182 20.509 20.508 20.509s20.506-9.181 20.506-20.509zM532.506 360.099c0-11.326-9.181-20.507-20.507-20.507s-20.507 9.181-20.507 20.507c0 11.326 9.181 20.507 20.507 20.507s20.507-9.181 20.507-20.507zM695.104 521.31h-411.301c-30.057 0-54.508 24.451-54.508 54.507v90.237c0 30.058 24.451 54.511 54.508 54.511h411.301l139.922-73.071 3.033-3.036c6.279-6.285 9.738-14.64 9.738-23.521 0-8.893-3.465-17.25-9.756-23.536l-3.027-3.023-139.91-73.068zM285.229 577.244h396.148l83.668 43.692-83.668 43.693h-396.148v-87.385zM740.197 260.47h-411.295l-139.916 73.064-3.027 3.025c-6.291 6.285-9.756 14.645-9.756 23.537s3.465 17.252 9.756 23.537l3.027 3.025 139.916 73.064h411.295c30.057 0 54.508-24.451 54.508-54.507v-90.24c0-30.054-24.451-54.505-54.508-54.505zM342.627 316.403h396.143v87.387h-396.143l-83.67-43.693 83.67-43.694z" />
<glyph unicode="&#xe947;" glyph-name="capas" d="M511.974 379.921c-9.992 0-19.398 3.209-27.203 9.189l-410.235 209.819-3.352 3.355c-17.43 17.43-17.43 45.873 0 63.377l3.719 3.719 410.375 193.191c7.656 5.689 16.922 8.824 26.695 8.824s19.031-3.135 26.766-8.824l410.305-193.191 3.719-3.719c17.5-17.504 17.5-45.947 0-63.377l-3.359-3.355-410.157-209.819c-7.805-5.98-17.281-9.189-27.273-9.189zM139.302 633.28l372.672-190.64 372.742 190.64-372.742 175.469-372.672-175.469zM511.974 200.075c-9.555 0-19.18 3.063-27.203 9.189l-406 207.705c-14.805 7.512-20.641 25.598-13.055 40.402 7.508 14.732 25.672 20.639 40.398 13.055l405.859-207.559 405.852 207.559c14.805 7.512 32.891 1.678 40.477-13.055 7.516-14.805 1.68-32.891-13.055-40.402l-406.070-207.705c-7.953-6.126-17.578-9.189-27.203-9.189zM511.974 24.604c-9.555 0-19.18 3.064-27.203 9.189l-406 207.633c-14.805 7.584-20.641 25.672-13.055 40.402 7.508 14.805 25.672 20.641 40.398 13.127l405.859-207.631 405.852 207.631c14.805 7.514 32.891 1.678 40.477-13.127 7.516-14.73 1.68-32.818-13.055-40.402l-406.070-207.633c-7.953-6.124-17.578-9.189-27.203-9.189z" />
<glyph unicode="&#xe948;" glyph-name="cortes_superpuestos" d="M767.564 471.687c4.8 22.378 7.35 45.58 7.35 69.371 0 182.107-148.195 330.301-330.375 330.301s-330.375-148.193-330.375-330.3c0-182.18 148.195-330.373 330.375-330.373 1.565 0 3.12 0.037 4.681 0.060 21.621-106.057 115.63-186.104 228.038-186.104 128.289 0 232.578 104.363 232.578 232.646 0 96.273-58.736 179.071-142.272 214.399zM444.82 268.668c-0.094 0-0.187-0.004-0.281-0.004-150.234 0-272.32 122.232-272.32 272.395s122.086 272.32 272.32 272.32 272.32-122.156 272.32-272.32c0-18.361-1.837-36.301-5.315-53.654-11.192 1.66-22.639 2.531-34.286 2.531-40.54 0-78.681-10.421-111.901-28.709l-79.833 79.832 127.046 126.97c11.305 11.377 11.305 29.684-0.070 40.988-11.305 11.377-29.609 11.377-40.992 0l-126.969-126.972-126.969 126.973c-11.375 11.377-29.688 11.377-40.984 0-11.383-11.305-11.383-29.611-0.078-40.988l127.047-126.971-127.047-127.045c-11.305-11.303-11.305-29.682 0.078-40.986 5.609-5.688 13.047-8.459 20.492-8.459 7.367 0 14.805 2.771 20.492 8.459l126.969 127.045 73.355-73.399c-42.549-40.031-70.065-95.854-73.074-158.006zM811.594 163.865c11.305-11.305 11.305-29.684 0-40.988-5.688-5.615-13.055-8.459-20.492-8.459s-14.805 2.771-20.563 8.459l-93.281 93.424-93.422-93.424c-5.688-5.615-13.125-8.459-20.492-8.459-7.438 0-14.875 2.771-20.57 8.459-11.297 11.305-11.297 29.684 0 40.988l93.43 93.422-93.43 93.352c-11.297 11.377-11.297 29.682 0 41.059 11.383 11.305 29.688 11.305 41.063 0l93.422-93.422 93.281 93.422c11.375 11.305 29.75 11.305 41.055 0 11.305-11.377 11.305-29.682 0-41.059l-93.344-93.352 93.343-93.422z" />
<glyph unicode="&#xe949;" glyph-name="distrito" d="M513.91 356.729c-107.711 0-195.375 87.662-195.375 195.379 0 107.719 87.664 195.381 195.375 195.381 107.719 0 195.344-87.662 195.344-195.381 0-107.717-87.625-195.379-195.344-195.379zM513.91 700.703c-81.93 0-148.594-66.658-148.594-148.596 0-81.973 66.664-148.631 148.594-148.631 81.938 0 148.602 66.658 148.602 148.631 0 81.938-66.664 148.596-148.602 148.596zM511.832 24.604l-21.477 19.691c-2.953 2.627-72.305 66.367-142.5 157.383-40.078 51.963-73.008 103.125-97.914 152.023-31.289 61.553-49.992 120.006-55.57 173.756-0.258 1.678-0.477 3.428-0.547 5.543-0.656 7.074-1.461 17.43-1.461 28.334 0 170.984 143.313 310.063 319.438 310.063 176.344 0 319.836-139.078 319.836-310.063 0-0.766-0.039-7.695-1.203-20.385-1.898-26.438-6.352-49.994-13.602-71.982-26.406-99.293-97.039-253.359-283.484-424.598l-21.516-19.765zM240.535 534.75c0.039-0.365 0.109-0.729 0.18-1.24l0.109-0.838c8.938-87.297 58.781-191.916 144.039-302.441 53.203-69.027 105.602-121.465 127.008-142.031 170.984 160.154 235.781 301.967 259.922 393.457l0.438 1.387c6.164 18.488 9.992 38.58 11.633 61.48l0.039 0.4c0.906 10.684 0.945 16.373 0.945 16.445 0 145.131-122.484 263.277-273.047 263.277-150.344 0-272.688-118.146-272.688-263.313 0-9.445 0.766-18.707 1.352-24.906l0.070-1.057v-0.62z" />
<glyph unicode="&#xe94a;" glyph-name="edificios" d="M964.714 51h-113.285v820h-676v-820h-116.141c-7.215 0-13.059-5.785-13.059-13 0-7.21 5.844-13 13.059-13h905.426c7.209 0 13.058 5.79 13.058 13-0.001 7.215-5.849 13-13.058 13zM543.429 51v144.594c0 2.515-1.547 5.406-4.058 5.406h-57.643c-2.517 0-5.3-2.892-5.3-5.406v-144.594h-264v751h602v-751h-270.999zM367.429 638.719c0-2.515-1.777-4.719-4.289-4.719h-57.961c-2.512 0-4.75 2.204-4.75 4.719v97.989c0 2.516 2.237 4.292 4.75 4.292h57.961c2.512 0 4.289-1.776 4.289-4.292v-97.989zM543.429 637.468c0-2.511-1.547-4.468-4.058-4.468h-57.643c-2.517 0-5.3 1.957-5.3 4.468v98.272c0 2.516 2.783 5.26 5.3 5.26h57.643c2.511 0 4.058-2.744 4.058-5.26v-98.272zM723.429 637.468c0-2.511-1.623-4.468-4.134-4.468h-57.642c-2.518 0-5.225 1.957-5.225 4.468v98.272c0 2.516 2.707 5.26 5.225 5.26h57.642c2.511 0 4.134-2.744 4.134-5.26v-98.272zM367.429 461.318c0-2.515-2.313-4.318-4.827-4.318h-57.649c-2.514 0-4.523 1.804-4.523 4.318v98.272c0 2.512 2.010 4.409 4.523 4.409h57.649c2.514 0 4.827-1.897 4.827-4.409v-98.272zM543.429 460.446c0-2.513-1.547-3.446-4.058-3.446h-57.643c-2.517 0-5.3 0.934-5.3 3.446v98.274c0 2.512 2.783 5.279 5.3 5.279h57.643c2.511 0 4.058-2.768 4.058-5.279v-98.274zM723.429 460.446c0-2.513-1.623-3.446-4.134-3.446h-57.642c-2.518 0-5.225 0.934-5.225 3.446v98.274c0 2.512 2.707 5.279 5.225 5.279h57.642c2.511 0 4.134-2.768 4.134-5.279v-98.274zM367.429 274.717c0-2.51-2.937-2.717-5.447-2.717h-57.65c-2.511 0-3.903 0.207-3.903 2.717v98.272c0 2.517 1.392 6.011 3.903 6.011h57.65c2.51 0 5.447-3.494 5.447-6.011v-98.272zM543.429 274.717c0-2.51-1.547-2.717-4.058-2.717h-57.643c-2.517 0-5.3 0.207-5.3 2.717v98.272c0 2.517 2.783 6.011 5.3 6.011h57.643c2.511 0 4.058-3.494 4.058-6.011v-98.272zM723.429 274.717c0-2.51-1.623-2.717-4.134-2.717h-57.642c-2.518 0-5.225 0.207-5.225 2.717v98.272c0 2.517 2.707 6.011 5.225 6.011h57.642c2.511 0 4.134-3.494 4.134-6.011v-98.272z" />
</font>
</defs>
</svg>
